<?xml version="1.0" encoding="utf-8"?>
<!-- Generator: Adobe Illustrator 16.0.0, SVG Export Plug-In . SVG Version: 6.00 Build 0)  -->
<!DOCTYPE svg PUBLIC "-//W3C//DTD SVG 1.1//EN" "http://www.w3.org/Graphics/SVG/1.1/DTD/svg11.dtd">
<svg version="1.1" id="Calque_1" xmlns="http://www.w3.org/2000/svg" xmlns:xlink="http://www.w3.org/1999/xlink" x="0px" y="0px"
	 width="40px" height="40px" viewBox="0 0 40 40" enable-background="new 0 0 40 40" xml:space="preserve">
<path fill="#FFFFFF" d="M20,0.5C9.23,0.5,0.5,9.23,0.5,20c0,10.77,8.73,19.5,19.5,19.5c10.77,0,19.5-8.73,19.5-19.5
	C39.5,9.23,30.77,0.5,20,0.5z M31.563,11.39L20,20.257L8.457,11.39H31.563z M8.376,13.818l6.802,5.227l-6.802,6.801V13.818z
	 M8.404,28.609l8.353-8.352L20,22.748l3.236-2.483l8.345,8.344H8.404z M31.624,25.859l-6.808-6.805l6.808-5.223V25.859z"/>
</svg>
