<?xml version="1.0" encoding="utf-8"?>
<!-- Generator: Adobe Illustrator 16.0.0, SVG Export Plug-In . SVG Version: 6.00 Build 0)  -->
<!DOCTYPE svg PUBLIC "-//W3C//DTD SVG 1.1//EN" "http://www.w3.org/Graphics/SVG/1.1/DTD/svg11.dtd">
<svg version="1.1" xmlns="http://www.w3.org/2000/svg" xmlns:xlink="http://www.w3.org/1999/xlink" x="0px" y="0px" width="40px"
	 height="40px" viewBox="0 0 40 40" enable-background="new 0 0 40 40" xml:space="preserve">
<g id="Calque_2">
</g>
<g id="Calque_1">
	<g>
		<circle fill="#FFFFFF" cx="17.659" cy="8.549" r="0.349"/>
		<path fill="#FFFFFF" d="M18.919,8.897h2.162c0.16,0,0.292-0.13,0.292-0.292s-0.131-0.294-0.292-0.294h-2.162
			c-0.162,0-0.293,0.131-0.293,0.294C18.626,8.766,18.757,8.897,18.919,8.897z"/>
		<circle fill="#FFFFFF" cx="19.999" cy="31.462" r="1.373"/>
		<path fill="#FFFFFF" d="M20,0.5C9.23,0.5,0.5,9.23,0.5,20S9.23,39.5,20,39.5S39.5,30.77,39.5,20S30.77,0.5,20,0.5z M27.141,31.822
			c0,1.213-0.983,2.197-2.197,2.197h-9.889c-1.213,0-2.196-0.984-2.196-2.197V8.176c0-1.214,0.983-2.197,2.196-2.197h9.889
			c1.214,0,2.199,0.984,2.197,2.198V31.822z"/>
		<rect x="13.957" y="10.89" fill="#FFFFFF" width="12.085" height="18.219"/>
	</g>
</g>
</svg>
