<?xml version="1.0" encoding="utf-8"?>
<!-- Generator: Adobe Illustrator 16.0.0, SVG Export Plug-In . SVG Version: 6.00 Build 0)  -->
<!DOCTYPE svg PUBLIC "-//W3C//DTD SVG 1.1//EN" "http://www.w3.org/Graphics/SVG/1.1/DTD/svg11.dtd">
<svg version="1.1" id="Calque_1" xmlns="http://www.w3.org/2000/svg" xmlns:xlink="http://www.w3.org/1999/xlink" x="0px" y="0px"
	 width="50px" height="50px" viewBox="-5 -5 50 50" enable-background="new -5 -5 50 50" xml:space="preserve">
<g id="Calque_2">
</g>
<circle fill="#222222" cx="20" cy="20" r="24"/>
<g>
	<path fill="#FFFFFF" d="M13.811,22.165C13.958,22.129,13.794,22.037,13.811,22.165L13.811,22.165z"/>
	<path fill="#FFFFFF" d="M11.888,22.126C12.033,22.089,11.871,21.999,11.888,22.126L11.888,22.126z"/>
	<path fill="#FFFFFF" d="M11.585,22.176C11.54,22.125,11.654,22.254,11.585,22.176L11.585,22.176z"/>
	<path fill="#FFFFFF" d="M11.888,22.126C11.742,22.162,11.902,22.254,11.888,22.126L11.888,22.126z"/>
	<path fill="#FFFFFF" d="M13.216,22.365c-0.03,0.027-0.046,0.063-0.053,0.102c-0.014-0.005-0.018-0.023-0.036-0.018
		c-0.036,0.013-0.084,0.056-0.147,0.151c0.042,0.096,0.081,0.135,0.112,0.155c0.036,0.017,0.065-0.006,0.084-0.042
		c0.041,0.181,0.098,0.313-0.141,0.131c0.084,0.317,0.355,0.365,0.022,0.517c0.141,0.023,0.228,0.09,0.312,0.159
		C13.288,23.16,13.456,22.584,13.216,22.365z"/>
	<path fill="#FFFFFF" d="M10.978,22.17c0.002,0.066,0.005,0.133,0.007,0.203c0.053,0.008,0.104,0.019,0.156,0.028
		c0.159,0.199,0.367,0.354,0.442,0.104c-0.2-0.069-0.224-0.506-0.021-0.473c-0.06-0.089-0.095-0.157-0.12-0.216
		c0.057,0.048,0.142,0.068,0.226-0.036c-0.13-0.098-0.206-0.122-0.247-0.115c0.047-0.117,0.31-0.036,0.595,0.138
		c-0.015-0.278-0.319-0.407-0.587-0.417c0.011-0.105-0.025-0.309-0.086-0.073c0.012,0.036,0.022,0.056,0.031,0.076
		c-0.073,0.002-0.143,0.009-0.199,0.029c0.04-0.086-0.054-0.278-0.233-0.076c0.013,0.017,0.023,0.02,0.037,0.034
		c-0.027,0.015-0.016,0.088,0.096,0.1c-0.013-0.029-0.021-0.033-0.034-0.049c0.031,0.017,0.054,0.025,0.074,0.025
		c-0.014,0.008-0.031,0.012-0.041,0.023c0.035,0.042,0.05,0.104,0.076,0.155c-0.013,0-0.036,0.008-0.095,0.039
		c-0.163,0.216,0.07,0.031,0.101-0.028c0.044,0.104,0.073,0.222,0.084,0.354c-0.166-0.017-0.105,0.094,0.016,0.13
		c0,0.001,0,0.006,0,0.009c-0.104-0.019-0.207-0.038-0.311-0.055c0.007,0.024,0.021,0.055,0.04,0.092
		C10.984,22.17,10.98,22.17,10.978,22.17z"/>
	<path fill="#FFFFFF" d="M11.599,22.482C11.555,22.433,11.669,22.563,11.599,22.482L11.599,22.482z"/>
	<path fill="#FFFFFF" d="M11.904,22.537C11.976,22.62,11.861,22.489,11.904,22.537L11.904,22.537z"/>
	<path fill="#FFFFFF" d="M12.11,22.577c0.077-0.01,0.2,0.032,0.198-0.07C12.231,22.518,12.107,22.475,12.11,22.577z"/>
	<path fill="#FFFFFF" d="M13.539,22.832C13.425,23.577,13.596,22.478,13.539,22.832L13.539,22.832z"/>
	<path fill="#FFFFFF" d="M11.099,22.599C10.865,22.9,11.429,22.411,11.099,22.599L11.099,22.599z"/>
	<path fill="#FFFFFF" d="M12.422,22.735c-0.393,0.114,0.255,0.325-0.183,0.479c0.101,0.021,0.205,0.038,0.308,0.054
		C12.479,22.937,12.769,22.89,12.422,22.735z"/>
	<path fill="#FFFFFF" d="M11.507,22.673c-0.078,0.009-0.202-0.033-0.201,0.066C11.384,22.732,11.507,22.771,11.507,22.673z"/>
	<path fill="#FFFFFF" d="M11.818,22.832C11.772,22.777,11.888,22.911,11.818,22.832L11.818,22.832z"/>
	<path fill="#FFFFFF" d="M12.742,23.1c0.007,0.152,0,0.838,0.126,0.536C12.861,23.483,12.868,22.796,12.742,23.1z"/>
	<path fill="#FFFFFF" d="M13.764,23.282C13.708,23.879,13.804,22.877,13.764,23.282L13.764,23.282z"/>
	<path fill="#FFFFFF" d="M11.008,22.89C11.172,23.257,11.243,22.532,11.008,22.89L11.008,22.89z"/>
	<path fill="#FFFFFF" d="M11.32,23.047C11.273,22.998,11.389,23.127,11.32,23.047L11.32,23.047z"/>
	<path fill="#FFFFFF" d="M13.57,23.454C13.524,23.402,13.64,23.532,13.57,23.454L13.57,23.454z"/>
	<path fill="#FFFFFF" d="M28.074,30.516c-0.12-0.005-0.293-0.071-0.302,0.048C27.892,30.568,28.067,30.636,28.074,30.516z"/>
	<path fill="#FFFFFF" d="M27.788,30.774C27.274,30.395,27.564,31.068,27.788,30.774L27.788,30.774z"/>
	<path fill="#FFFFFF" d="M28.202,30.849C28.155,30.798,28.274,30.931,28.202,30.849L28.202,30.849z"/>
	<path fill="#FFFFFF" d="M11.639,23.412C11.594,23.361,11.71,23.49,11.639,23.412L11.639,23.412z"/>
	<path fill="#FFFFFF" d="M11.945,23.469C12.085,23.899,12.047,23.082,11.945,23.469L11.945,23.469z"/>
	<path fill="#FFFFFF" d="M13.073,23.671C12.839,23.974,13.406,23.483,13.073,23.671L13.073,23.671z"/>
	<path fill="#FFFFFF" d="M13.484,23.744C13.438,23.694,13.554,23.824,13.484,23.744L13.484,23.744z"/>
	<path fill="#FFFFFF" d="M27.178,30.765C27.327,31.201,27.266,30.373,27.178,30.765L27.178,30.765z"/>
	<path fill="#FFFFFF" d="M28.004,30.917C27.928,30.751,27.879,30.904,28.004,30.917L28.004,30.917z"/>
	<path fill="#FFFFFF" d="M28.004,30.917C28.078,31.078,28.127,30.928,28.004,30.917L28.004,30.917z"/>
	<path fill="#FFFFFF" d="M13.282,23.811c0.042,0.209-0.128,0.183-0.19,0.274C13.383,24.299,13.539,23.901,13.282,23.811z"/>
	<path fill="#FFFFFF" d="M28.446,31.411c-0.009-0.181-0.099-0.284-0.229-0.353C28.225,31.236,28.314,31.343,28.446,31.411z"/>
	<path fill="#FFFFFF" d="M11.347,23.666C11.482,24.095,11.445,23.28,11.347,23.666L11.347,23.666z"/>
	<path fill="#FFFFFF" d="M12.782,23.927C12.917,24.354,12.879,23.538,12.782,23.927L12.782,23.927z"/>
	<path fill="#FFFFFF" d="M27.717,31.174C27.865,31.609,27.806,30.782,27.717,31.174L27.717,31.174z"/>
	<path fill="#FFFFFF" d="M11.556,23.807C11.511,23.757,11.627,23.89,11.556,23.807L11.556,23.807z"/>
	<path fill="#FFFFFF" d="M13.5,24.158C13.386,24.902,13.558,23.804,13.5,24.158L13.5,24.158z"/>
	<path fill="#FFFFFF" d="M28.031,31.335C28.178,31.297,28.014,31.204,28.031,31.335L28.031,31.335z"/>
	<path fill="#FFFFFF" d="M28.047,31.546c-0.005-0.072-0.009-0.142-0.014-0.211C27.904,31.335,27.944,31.522,28.047,31.546z"/>
	<path fill="#FFFFFF" d="M27.223,31.393C27.297,31.474,27.176,31.34,27.223,31.393L27.223,31.393z"/>
	<path fill="#FFFFFF" d="M11.877,24.173C11.833,24.121,11.945,24.251,11.877,24.173L11.877,24.173z"/>
	<path fill="#FFFFFF" d="M13.102,24.291C12.439,24.056,12.891,24.567,13.102,24.291L13.102,24.291z"/>
	<path fill="#FFFFFF" d="M28.047,31.546C28.124,31.71,28.172,31.556,28.047,31.546L28.047,31.546z"/>
	<path fill="#FFFFFF" d="M14.343,24.72C14.297,24.67,14.411,24.802,14.343,24.72L14.343,24.72z"/>
	<path fill="#FFFFFF" d="M27.547,31.658C27.473,31.495,27.422,31.647,27.547,31.658L27.547,31.658z"/>
	<path fill="#FFFFFF" d="M27.91,32.451c0.247,0.113,0.303,0.396,0.55,0.512c-0.177-0.551-0.722-0.766-0.912-1.305
		C27.343,32.021,27.77,32.108,27.91,32.451z"/>
	<path fill="#FFFFFF" d="M11.583,24.428C11.652,24.507,11.538,24.377,11.583,24.428L11.583,24.428z"/>
	<path fill="#FFFFFF" d="M24.951,12.038c0.001,0.035,0.003,0.069,0.007,0.105c0.169,0.023,0.261,0.123,0.312,0.259
		c0.229,0.053,0.434,0.696,0.621,0.418c-0.105-0.197-0.347-0.268-0.427-0.488C25.264,12.312,24.951,11.542,24.951,12.038z"/>
	<path fill="#FFFFFF" d="M26.045,12.226C26.349,11.956,25.682,11.99,26.045,12.226L26.045,12.226z"/>
	<path fill="#FFFFFF" d="M26.443,12.296C26.387,11.877,26.01,12.239,26.443,12.296L26.443,12.296z"/>
	<path fill="#FFFFFF" d="M14.157,25.099c0.104,0.018,0.118-0.062,0.201-0.066C14.281,24.844,14.118,24.924,14.157,25.099z"/>
	<path fill="#FFFFFF" d="M14.664,25.089c0.357,0.159,0.623,0.967,0.954,0.786C15.263,25.715,14.998,24.907,14.664,25.089z"/>
	<path fill="#FFFFFF" d="M28.089,32.067C28.01,31.904,27.963,32.059,28.089,32.067L28.089,32.067z"/>
	<path fill="#FFFFFF" d="M25.87,12.505c0.022-0.32-0.271-0.336-0.429-0.486c0.002,0.069,0.01,0.138,0.014,0.208
		c0.003,0.035,0.004,0.072,0.009,0.106C25.651,12.157,25.661,12.413,25.87,12.505z"/>
	<path fill="#FFFFFF" d="M27.051,12.501C26.991,12.084,26.613,12.446,27.051,12.501L27.051,12.501z"/>
	<path fill="#FFFFFF" d="M14.464,25.152c0.015-0.084-0.045-0.104-0.107-0.12C14.343,25.116,14.402,25.137,14.464,25.152z"/>
	<path fill="#FFFFFF" d="M28.089,32.067c-0.016,0.087,0.047,0.106,0.109,0.127C28.212,32.105,28.15,32.087,28.089,32.067z"/>
	<path fill="#FFFFFF" d="M26.264,12.47c-0.056-0.101-0.105-0.202-0.219-0.245C25.916,12.385,25.971,12.448,26.264,12.47z"/>
	<path fill="#FFFFFF" d="M27.29,13.061c-0.351-0.191-0.422-0.646-0.847-0.765C26.676,12.526,26.986,13.269,27.29,13.061z"/>
	<path fill="#FFFFFF" d="M14.68,25.396c-0.048-0.1-0.1-0.199-0.215-0.244c0.004,0.07,0.007,0.14,0.011,0.208
		C14.542,25.373,14.611,25.385,14.68,25.396z"/>
	<path fill="#FFFFFF" d="M15.497,25.443c0.013-0.085-0.046-0.104-0.109-0.125C15.375,25.405,15.433,25.424,15.497,25.443z"/>
	<path fill="#FFFFFF" d="M27.266,32.021c-0.011,0.085,0.049,0.108,0.111,0.125C27.391,32.059,27.33,32.037,27.266,32.021z"/>
	<path fill="#FFFFFF" d="M28.198,32.192c-0.013,0.085,0.048,0.105,0.11,0.124C28.322,32.233,28.262,32.21,28.198,32.192z"/>
	<path fill="#FFFFFF" d="M27.051,12.501c-0.011,0.087,0.045,0.107,0.109,0.124C27.17,12.539,27.111,12.519,27.051,12.501z"/>
	<path fill="#FFFFFF" d="M15.603,25.564c0.015-0.082-0.042-0.105-0.105-0.121C15.481,25.526,15.542,25.547,15.603,25.564z"/>
	<path fill="#FFFFFF" d="M27.377,32.145c-0.024,0.172,0.096,0.211,0.224,0.248C27.547,32.291,27.495,32.188,27.377,32.145z"/>
	<path fill="#FFFFFF" d="M28.309,32.316c-0.012,0.084,0.05,0.105,0.112,0.123C28.432,32.354,28.373,32.335,28.309,32.316z"/>
	<path fill="#FFFFFF" d="M26.369,12.591c0.01-0.086-0.048-0.104-0.105-0.121C26.25,12.557,26.307,12.575,26.369,12.591z"/>
	<path fill="#FFFFFF" d="M27.16,12.625c-0.014,0.084,0.045,0.105,0.105,0.122C27.276,12.661,27.218,12.641,27.16,12.625z"/>
	<path fill="#FFFFFF" d="M11.914,24.999c0.013-0.086-0.046-0.106-0.107-0.123C11.792,24.963,11.852,24.982,11.914,24.999z"/>
	<path fill="#FFFFFF" d="M14.491,25.671c-0.006-0.103-0.011-0.206-0.016-0.311c-0.104-0.017-0.205-0.038-0.309-0.055
		C14.111,25.571,14.389,25.543,14.491,25.671z"/>
	<path fill="#FFFFFF" d="M14.789,25.52c0.013-0.082-0.046-0.104-0.109-0.123C14.667,25.483,14.724,25.505,14.789,25.52z"/>
	<path fill="#FFFFFF" d="M15.712,25.686c0.015-0.082-0.045-0.103-0.109-0.121C15.592,25.649,15.648,25.67,15.712,25.686z"/>
	<path fill="#FFFFFF" d="M28.421,32.439c0.067,0.161,0.18,0.285,0.333,0.372C28.757,32.587,28.645,32.463,28.421,32.439z"/>
	<path fill="#FFFFFF" d="M25.978,12.628c0.013-0.086-0.047-0.106-0.106-0.123C25.857,12.591,25.915,12.612,25.978,12.628z"/>
	<path fill="#FFFFFF" d="M26.475,12.714c0.014-0.085-0.044-0.105-0.105-0.123C26.355,12.678,26.415,12.698,26.475,12.714z"/>
	<path fill="#FFFFFF" d="M27.266,12.747c0.053,0.101,0.103,0.204,0.213,0.243C27.505,12.817,27.389,12.78,27.266,12.747z"/>
	<path fill="#FFFFFF" d="M12.022,25.12c0.012-0.083-0.047-0.104-0.108-0.121C11.898,25.082,11.958,25.104,12.022,25.12z"/>
	<path fill="#FFFFFF" d="M14.897,25.641c0.013-0.083-0.047-0.104-0.108-0.121C14.773,25.604,14.833,25.626,14.897,25.641z"/>
	<path fill="#FFFFFF" d="M15.82,25.809c0.016-0.083-0.046-0.104-0.107-0.123C15.698,25.771,15.757,25.795,15.82,25.809z"/>
	<path fill="#FFFFFF" d="M27.601,32.395c-0.011,0.084,0.045,0.106,0.111,0.121C27.724,32.431,27.663,32.41,27.601,32.395z"/>
	<path fill="#FFFFFF" d="M27.718,32.62c0.194,0.183,0.244,0.141,0.192-0.169c-0.082,0.003-0.094,0.084-0.198,0.064
		C27.714,32.552,27.717,32.587,27.718,32.62z"/>
	<path fill="#FFFFFF" d="M26.083,12.75c0.012-0.087-0.046-0.105-0.105-0.122C25.963,12.714,26.024,12.732,26.083,12.75z"/>
	<path fill="#FFFFFF" d="M26.582,12.836c0.012-0.087-0.045-0.106-0.107-0.123C26.462,12.802,26.524,12.819,26.582,12.836z"/>
	<path fill="#FFFFFF" d="M12.129,25.243c0.013-0.085-0.044-0.104-0.107-0.123C12.007,25.207,12.064,25.228,12.129,25.243z"/>
	<path fill="#FFFFFF" d="M15.004,25.765c0.013-0.086-0.048-0.104-0.107-0.124C14.882,25.729,14.94,25.748,15.004,25.765z"/>
	<path fill="#FFFFFF" d="M15.929,25.931c0.014-0.083-0.047-0.103-0.108-0.122C15.806,25.896,15.864,25.913,15.929,25.931z"/>
	<path fill="#FFFFFF" d="M26.192,12.87c0.011-0.086-0.046-0.104-0.109-0.121C26.072,12.834,26.131,12.855,26.192,12.87z"/>
	<path fill="#FFFFFF" d="M26.689,12.958c0.012-0.088-0.045-0.106-0.107-0.123C26.571,12.922,26.63,12.94,26.689,12.958z"/>
	<path fill="#FFFFFF" d="M12.129,25.243C12.198,25.405,12.252,25.255,12.129,25.243L12.129,25.243z"/>
	<path fill="#FFFFFF" d="M14.491,25.671C14.413,26.084,14.8,25.75,14.491,25.671L14.491,25.671z"/>
	<path fill="#FFFFFF" d="M15.111,25.889c0.014-0.086-0.044-0.107-0.108-0.124C14.989,25.848,15.049,25.869,15.111,25.889z"/>
	<path fill="#FFFFFF" d="M25.292,12.716C25.366,12.88,25.411,12.726,25.292,12.716L25.292,12.716z"/>
	<path fill="#FFFFFF" d="M26.192,12.87C26.234,13.19,26.599,12.841,26.192,12.87L26.192,12.87z"/>
	<path fill="#FFFFFF" d="M26.689,12.958C26.765,13.122,26.812,12.967,26.689,12.958L26.689,12.958z"/>
	<path fill="#FFFFFF" d="M14.187,25.72C14.259,25.881,14.31,25.729,14.187,25.72L14.187,25.72z"/>
	<path fill="#FFFFFF" d="M15.111,25.889C15.183,26.048,15.235,25.9,15.111,25.889L15.111,25.889z"/>
	<path fill="#FFFFFF" d="M12.518,10.229c0.073,0.084,0.15,0.168,0.225,0.25c0.203,0.22,0.447,0.434,0.625,0.67
		c0-0.003-0.048,0.044-0.132,0.124c0.052,0.134,0.034,0.574-0.105,0.126c0.002-0.013,0.004-0.017,0.007-0.029
		c-0.406,0.403-1.215,1.219-1.304,1.326c-0.468,0.553-0.872,1.167-1.201,1.835c-0.359,0.727-0.64,1.527-0.762,2.381
		c0.137-0.049,0.092,0.366-0.036,0.303c-0.047,0.511-0.036,1.04,0.057,1.579c0.016,0.092,0.04,0.182,0.059,0.271
		c-0.007,0.02-0.012,0.026-0.019,0.051c0.026,0.08,0.048,0.13,0.066,0.162c0.062,0.256,0.131,0.512,0.216,0.767
		c0.137,0.409,0.271,0.876,0.478,1.268c-0.104-0.431-0.165-0.892-0.192-1.36c0.047-0.011,0.082-0.031,0.081-0.096
		c-0.026,0.003-0.058,0.002-0.089,0c-0.076-1.55,0.262-3.16,1.018-3.957c0.016,0.042,0.029,0.088,0.043,0.131
		c0.089-0.234,0.132,0.203,0.088,0.278c0.108,0.375,0.215,0.797,0.336,1.211c0.019,0.012,0.047,0.041,0.073,0.108
		c0.51-0.07,0.517,0.308,0.494,0.713c-0.184-0.058-0.18-0.28-0.178-0.501c-0.122-0.056-0.306-0.059-0.316-0.212
		c-0.017-0.002-0.032-0.008-0.044-0.013c0.215,0.727,0.479,1.419,0.877,1.778c-0.568-2.294,0.031-4.311,1.646-6.085
		c0.418,0.969,0.471,2.566,1.387,3.175c-0.483-1.077-0.536-1.984-0.259-2.984c0.024,0,0.048,0,0.071,0
		c-0.018,0-0.043-0.042-0.074-0.135c0.099-0.406,0.163,0.072,0.123,0.191c0.857-0.004,1.709,0.749,2.565,0.798
		c-0.513-0.599-1.329-0.934-1.938-1.284c-0.066-0.038-0.131-0.075-0.19-0.114c0.027,0.169-0.003,0.435-0.125,0.054
		c0.011-0.053,0.022-0.085,0.035-0.11c-0.138-0.095-0.255-0.194-0.343-0.301c0.114,0.644-0.405,0.042-0.071-0.1
		c-0.014-0.023-0.031-0.047-0.045-0.071c2.121-1.157,4.23-0.809,6.337-0.083c-1.123-0.978-2.247-1.355-3.367-2.245
		c2.878-0.253,5.19-0.306,7.84,1.79c-0.011,0.091-0.008,0.064,0.001,0c0.511,0.403,1.031,0.879,1.575,1.457
		c-0.009,0.007-0.019,0.015-0.028,0.023c-0.005-0.004-0.001,0,0,0c-0.197,0.171-0.391,0.338-0.585,0.492
		c0.003-0.05,0.001-0.124-0.01-0.184c-0.019-0.1-0.053-0.164-0.092-0.06c-0.01,0.025-0.021,0.061-0.031,0.113
		c0.031,0.092,0.057,0.144,0.074,0.172c-0.122,0.094-0.243,0.174-0.363,0.258c-0.013-0.16-0.067-0.337-0.134-0.03
		c0.013,0.041,0.026,0.071,0.038,0.098c-0.458,0.3-0.919,0.516-1.382,0.552c-1.043-1.205-2.081-2.037-3.112-2.479
		c0.944,0.806,2.638,2.132,3.119,3.059c-2.151,2.402-4.33,0.688-6.5-0.973c1.179,1.082,2.362,1.812,3.546,3.308
		c-0.854,0.669-1.705,1.143-2.558,1.117L19.563,18.3c-0.615-0.771-1.328-1.459-1.941-2.232c0.305,0.988,1.678,2.232,2.121,3.253
		c-0.828,0.621-0.808,1.443-1.866,2.003c-1.159-1.434-1.751-2.729-2.257-4.004c-0.293,0.411,0.901,2.425,1.4,3.509
		c-0.567,0.803-1.09,2.265-2.22,2.635c-0.017-0.066-0.057-0.119-0.121-0.118c-0.004,0.062-0.009,0.121-0.098,0.085
		c0.001,0.033,0.004,0.065,0.005,0.1c-0.015,0.002-0.026,0.011-0.042,0.015c-0.224-0.349-0.49-0.833-0.761-1.348
		c0.008-0.011,0.022-0.016,0.027-0.032c-0.021,0-0.035-0.009-0.052-0.013c-0.861-1.638-1.748-3.533-1.321-2.145
		c0.023,0.079,0.062,0.169,0.108,0.273c-0.093,0.486-0.048,0.247,0,0.001c0.091,0.206,0.224,0.459,0.374,0.752
		c-0.005-0.004-0.003-0.004-0.013-0.014c-0.036-0.041-0.007-0.005,0.017,0.021c0.178,0.351,0.383,0.763,0.585,1.215
		c-0.011,0.138-0.014,0.272,0.118,0.285c-0.006-0.014-0.001-0.019-0.006-0.029c0.152,0.354,0.291,0.735,0.416,1.134
		c-0.035,0.193-0.023,0.122,0.001,0.002c0.022,0.074,0.049,0.146,0.071,0.223c-0.066,0.068-0.141,0.15-0.219,0.24
		c-0.007-0.096-0.04-0.183-0.086,0.002c0.011,0.034,0.018,0.047,0.027,0.066c-0.149,0.172-0.316,0.359-0.498,0.542
		c-0.04-0.031-0.071-0.072-0.115-0.097c0.006,0.059,0.041,0.1,0.061,0.151c-0.055,0.054-0.112,0.102-0.168,0.152
		c-0.059-0.198-0.294-0.245-0.405-0.4c0.043,0.213-0.007,0.319-0.188,0.271c0.034-0.526,0.038-0.559,0.04-1.323
		c-0.102-0.018-0.207-0.036-0.307-0.057c0.195,0.379,0.213,0.312-0.082,0.499c0.434,0.22-0.276,0.437,0.245,0.863
		c-0.323,0.03-0.326-0.222-0.521-0.298c0.086,0.268,0.359,0.679,0.607,0.829c-0.146,0.053-0.293,0.088-0.442,0.069
		c-0.111-0.168-0.21-0.35-0.31-0.531c0.018,0.011,0.037,0.02,0.06,0.026c0.014-0.084-0.044-0.106-0.108-0.121
		c-0.002,0.013,0.006,0.015,0.007,0.027c-0.006-0.013-0.013-0.021-0.018-0.034c0.004,0.002,0.006,0.004,0.012,0.007
		c0.011-0.062-0.023-0.088-0.064-0.104c-0.228-0.437-0.431-0.898-0.61-1.357c0.174,0.036,0.43,0.166,0.406-0.022
		c-0.107,0.021-0.335-0.099-0.446-0.081c-0.087-0.226-0.169-0.453-0.245-0.674c0.154,0.094,0.389-0.187-0.058-0.177
		c-0.087-0.262-0.167-0.515-0.24-0.759c0.184,0.15,0.243,0.413,0.505,0.499c0.077-0.476-0.236-0.604-0.568-0.716
		c-0.146-0.493-0.265-0.934-0.359-1.262c0.05,1.257,0.833,4.22,2.014,6.426c0.343-0.085,0.693-0.85,1.029-0.467
		c1.325,2.184,3.922,4.335,5.763,5.451c0.312-0.166,0.161-0.442,0.441-0.611c1.069,0.705,2.138,1.57,3.208,1.658
		c-0.102-0.267-0.174-0.525-0.146-0.757c1.361,0.788,2.729,1.521,4.094,1.876c-0.311-0.511-0.472-0.985-0.446-1.411
		c1.121,0.864,2.24,0.821,3.365,1.556c0.328-0.162,0.089-0.463,0.136-0.691c0.734,0.433,1.457,0.146,2.199,0.977
		c0.561-0.828-0.142-1.971-0.051-2.913c0.243,0.159,0.487,0.292,0.731,0.322c-0.073-1.13-0.441-2.335-0.505-3.463
		c0.385-0.199,0.783,0.683,1.166,0.575c-0.12-1.386-0.687-2.878-0.951-4.3c0.289,0.053,0.584,0.634,0.86,0.211
		c-0.393-1.211-0.861-2.439-1.075-3.601c0.242,0.18,0.479,0.224,0.711,0.025c-1.023-2.235-2.027-4.46-4.227-6.969
		c0.231-0.188,0.46-0.373,0.693-0.561c-1.613-1.396-3.658-2.9-4.92-3.053c0.013-0.01-0.085-0.108-0.02-0.004
		c-0.124-0.084-0.247-0.165-0.372-0.243c-0.017,0-0.033-0.003-0.049-0.003c0.011-0.004,0.021-0.004,0.031-0.008
		c-0.078,0.017-0.38-0.194-0.468-0.236c-0.156-0.081-0.312-0.157-0.469-0.229c-0.312-0.145-0.626-0.276-0.943-0.385
		c-0.641-0.22-1.284-0.336-1.916-0.367c-1.341-0.061-2.646,0.192-3.81,0.655c-0.23,0.091-0.454,0.197-0.674,0.304
		c0.166,0.322,0.374,0.608,0.691,0.794c-0.239,0.469-0.421-0.479-0.923-0.315c-0.001-0.116-0.026-0.228-0.06-0.334
		c-0.122,0.066-0.227,0.157-0.34,0.236c0.112,0.109,0.213,0.225,0.267,0.389c0.623-0.044,0.052,0.479,0,0
		c-0.192,0.001-0.3,0.193-0.316-0.21c-0.116,0.013-0.171,0.102-0.136,0.29c-0.065-0.107-0.115-0.224-0.166-0.344
		c-0.297-0.042-0.591-0.447-0.821-0.746c-0.047,0.71,0.511,0.387,0.524,0.853c-0.481,0.05-0.483-0.329-0.778-0.448
		c-0.201-0.034-0.127,0.255-0.289,0.265C13.027,10.684,12.669,10.266,12.518,10.229z M10.705,14.89
		C11.204,14.6,10.354,15.352,10.705,14.89L10.705,14.89z M10.156,16.356C10.308,15.766,10.36,17.012,10.156,16.356L10.156,16.356z
		 M10.06,17.747c-0.002-0.156,0.184-0.091,0.303-0.104C10.365,17.796,10.18,17.731,10.06,17.747z M10.639,16.912
		C10.789,16.32,10.846,17.565,10.639,16.912L10.639,16.912z M10.617,16.439c-0.002-0.155,0.184-0.09,0.303-0.106
		C10.922,16.487,10.735,16.423,10.617,16.439z M11.06,16.047C11.211,15.457,11.266,16.701,11.06,16.047L11.06,16.047z
		 M11.187,15.444C11,15.428,11.083,15.2,11.187,15.444C11.372,15.461,11.29,15.688,11.187,15.444z M11.013,14.943
		c0.029-0.19,0.297-0.104,0.308,0.054C11.26,15.214,11.183,14.958,11.013,14.943z M11.481,15.183
		C11.413,15.104,11.585,15.305,11.481,15.183L11.481,15.183z M11.654,15.683C11.587,15.605,11.76,15.802,11.654,15.683
		L11.654,15.683z M11.583,14.106C11.736,13.513,11.79,14.76,11.583,14.106L11.583,14.106z M12.444,16.29
		C12.596,15.7,12.654,16.945,12.444,16.29L12.444,16.29z M12.425,12.531C12.529,12.652,12.356,12.454,12.425,12.531L12.425,12.531z
		 M12.394,15.187C12.546,14.594,12.601,15.841,12.394,15.187L12.394,15.187z M11.933,15.106c0.19-0.465,0.178,0.584,0.191,0.815
		C11.933,16.386,11.945,15.337,11.933,15.106z M12.491,17.237C12.004,16.807,12.622,16.258,12.491,17.237
		C12.677,17.256,12.596,17.483,12.491,17.237z M15.739,17.969C15.672,17.891,15.847,18.088,15.739,17.969L15.739,17.969z
		 M22.446,16.933c1.461-0.195,2.918-0.881,4.382-0.25c1.311,1.908,1.187,3.474,1.917,5.247c-1.521,0.086-3.052-0.847-4.574-1.396
		C22.751,19.099,23.921,17.956,22.446,16.933z M28.525,29.855c-0.01-0.095-0.024-0.183-0.108-0.206
		c0.006,0.061,0.011,0.123,0.015,0.185c-0.874-0.174-1.75-0.575-2.626-0.939c-0.472-0.986-0.118-1.765-0.307-2.683
		c0.861,0.089,1.73,0.302,2.597,0.636c0.522,1.092,0.362,2.021,0.614,3.049C28.649,29.887,28.588,29.866,28.525,29.855z
		 M25.058,25.093c-0.247-1.27-0.491-2.532-0.741-3.8c1.378-0.135,2.768,0.838,4.157,1.439c0.098,1.04,0.426,2.134,0.473,3.162
		l0.148,0.47C27.755,26.538,26.402,25.301,25.058,25.093z M25.23,29.333c-1.206-0.103-2.418-0.708-3.627-1.324
		c-0.675-1.42-0.392-2.601-0.863-3.967c1.245-0.255,2.496,1.057,3.743,1.199C25.009,26.673,25.062,27.986,25.23,29.333z
		 M23.022,19.39c1.034,1.84,1.002,3.424,1.312,5.09c-1.631-0.421-3.261-0.917-4.884-2.631C18.915,19.89,21.343,18.396,23.022,19.39z
		 M12.926,24.876c0.055,0.023,0.091,0.062,0.134,0.098c-0.059,0.047-0.118,0.094-0.178,0.136c-0.017-0.017-0.036-0.029-0.049-0.047
		C12.811,24.939,12.846,24.882,12.926,24.876z M12.622,24.922c0.029,0.104,0.092,0.174,0.117,0.279
		c-0.039,0.023-0.078,0.047-0.119,0.065C12.46,25.131,12.347,24.929,12.622,24.922z M18.247,30.506
		c-1.412-1.006-4.808-3.142-4.674-4.992c0.063,0.132,0.107,0.011,0.001-0.007c0.01-0.13,0.034-0.259,0.081-0.389
		c0.062,0.302,0.237,0.503,0.533,0.6c-0.137-0.238-0.312-0.437-0.53-0.602c0.028-0.075,0.08-0.147,0.122-0.222
		c0.025,0.153,0.219,0.328,0.388,0.411c-0.003-0.069-0.006-0.139-0.01-0.21c-0.337,0.091-0.113-0.31-0.293-0.356
		c0.101-0.14,0.225-0.276,0.384-0.406c0.32,0.261,0.642,0.53,0.964,0.798c-0.011,0.017,0.002,0.059,0.07,0.066
		c-0.005-0.011-0.008-0.011-0.013-0.017c0.011,0.008,0.021,0.017,0.033,0.024c-0.007,0-0.012-0.007-0.02-0.008
		c-0.014,0.085,0.046,0.105,0.106,0.121c0.005-0.026-0.007-0.037-0.015-0.052c1.058,0.881,2.119,1.734,3.188,2.14
		C18.516,28.454,19.013,29.632,18.247,30.506z M15.878,25.194c0.231,0.009,0.033-0.242-0.055-0.132
		c-0.182-1.506,0.76-2.735,1.341-4.056c0.608,1.569,2.219,1.025,3.289,2.388c0.109,1.518,0.424,3.089,0.424,4.578
		C19.205,27.426,17.536,26.776,15.878,25.194z M19.183,30.254c-0.434-0.471-0.225-2.339,1.26-1.665
		c0.829,1.167,0.963,2.254,1.521,3.354C20.842,31.796,19.75,30.859,19.183,30.254z M21.229,29.475
		c-0.612-1.402,2.225-0.379,2.988,0.041c0.617,1.116,0.841,2.384,1.561,3.521C24.064,32.499,22.171,31.479,21.229,29.475z
		 M24.797,29.679c1.449-0.299,2.958,0.26,3.293,0.659c0.138,0.068,0.281,0.566,0.448,1.179c-0.084,0.013-0.17,0.068-0.178,0.083
		c-0.055,0.104,0.104,0.089,0.213,0.046c0.025,0.093,0.052,0.187,0.078,0.286c-0.103-0.032-0.236,0.257,0.063,0.354
		c0.006-0.048,0.002-0.074,0.005-0.112c0.103,0.374,0.214,0.748,0.337,1.074C27.943,32.671,25.271,32.187,24.797,29.679z
		 M31.438,33.462c-0.57-0.477-1.695-0.707-1.695-0.707c-0.477,0.205-1.444-1.917-1.094-2.556c0.073,0.055,0.144,0.106,0.228,0.15
		c-0.151-0.322,0.625,0.059,0.435-0.258c0.726,0.129,1.345,0.482,1.671,0.746c0.102,0.188,0.267,0.731,0.389,1.28
		c-0.033-0.013-0.08,0.002-0.068,0.094c0.05-0.013,0.068-0.028,0.079-0.045c0.028,0.13,0.051,0.251,0.073,0.376
		c-0.111-0.055-0.109-0.213-0.152-0.331c-0.457-0.108,0.073,0.812,0.168,0.417C31.543,33.077,31.561,33.438,31.438,33.462z
		 M28.946,30.037c0.076,0.006,0.151,0.023,0.227,0.034C29.103,30.099,29.025,30.074,28.946,30.037z M31.915,30.726
		c-0.868,0.004-1.91-1.061-2.78-1.211c-0.082-0.941-0.28-2.195,0.833-2.842C31.507,27.618,31.798,29.654,31.915,30.726z
		 M32.651,27.891c-1.247-0.451-2.599-1.438-3.24-2.364c-0.399-0.578-0.422-2.303,0.044-3.011
		C31.219,23.37,32.371,26.483,32.651,27.891z M32.345,23.817c-1.18-0.276-3.782-2.251-3.325-3.411
		C31.174,20.812,31.968,22.732,32.345,23.817z M31.704,20.466c-0.996-0.096-1.989-0.117-2.991-0.576
		c-0.718-1.625-1.104-3.166-2.328-4.908C28.876,13.239,31.067,18.513,31.704,20.466z M16.774,11.716
		C16.879,11.838,16.706,11.641,16.774,11.716L16.774,11.716z M15.38,13.985C15.312,13.906,15.486,14.106,15.38,13.985L15.38,13.985z
		 M15.194,13.326C15.3,13.446,15.125,13.248,15.194,13.326L15.194,13.326z M15.17,12.851C15.313,12.257,15.378,13.506,15.17,12.851
		L15.17,12.851z M15.079,11.111C15.013,11.033,15.185,11.232,15.079,11.111L15.079,11.111z M14.889,13.272
		C15.036,12.678,15.097,13.929,14.889,13.272L14.889,13.272z M13.234,13.612C13.167,13.532,13.341,13.732,13.234,13.612
		L13.234,13.612z M14.479,11.162C14.581,11.286,14.411,11.086,14.479,11.162L14.479,11.162z M14.534,12.269
		C14.509,12.076,14.752,12.211,14.534,12.269c0.04,0.132,0.02,0.314,0.167,0.344C14.648,13.198,14.064,12.164,14.534,12.269z
		 M14.044,11.558C14.147,11.679,13.977,11.482,14.044,11.558L14.044,11.558z M14.229,12.218c-0.193-0.103-0.327-0.257-0.33-0.527
		C14.091,11.792,14.223,11.946,14.229,12.218z M14.245,12.532c0.177,0.504-0.328,0.223-0.597,0.212
		C13.739,12.549,13.96,12.505,14.245,12.532z M13.32,12.216C12.839,11.641,14.333,12.088,13.32,12.216L13.32,12.216z"/>
	<path fill="#FFFFFF" d="M9.946,7.932c0.521,0.183,1.007,0.368,1.441,0.38c0.035,0.12,0.192,0.129,0.302,0.18
		c-0.002,0.223-0.006,0.443,0.172,0.5c0.019-0.333,0.001-0.631-0.281-0.693c0.118-0.013,0.234-0.029,0.341-0.081
		c0.271,0.056,0.4,0.214,0.512,0.352c-0.021,0-0.045,0.032-0.076,0.154c0.14,0.448,0.156,0.01,0.106-0.123
		c0.068,0.081,0.148,0.136,0.247,0.154c0.032,0.065,0.053,0.058,0.063,0.018c0.01,0,0.013,0.006,0.024,0.005
		c-0.006-0.005-0.012-0.009-0.019-0.017c0.029-0.139-0.026-0.534-0.124-0.145c0.01,0.027,0.015,0.034,0.023,0.054
		c-0.208-0.189-0.416-0.379-0.624-0.553c-0.951-0.8-2.035-1.547-3.149-1.92C8.266,5.985,7.625,5.871,7,5.896
		C6.806,8.222,8.073,7.002,9.946,7.932z"/>
	<path fill="#FFFFFF" d="M11.703,9.343c0.034,0.039,0.07,0.076,0.105,0.113C11.802,9.315,11.765,9.171,11.703,9.343z"/>
	<path fill="#FFFFFF" d="M10.808,8.498c0.077,0.064,0.156,0.132,0.233,0.201c-0.003-0.053-0.006-0.108-0.008-0.163
		C10.958,8.523,10.882,8.511,10.808,8.498z"/>
	<path fill="#FFFFFF" d="M13.482,9.458c-0.014-0.017-0.027-0.031-0.041-0.044c-0.087-0.089-0.178-0.18-0.27-0.27
		c0.034,0.215,0.195,0.312,0.177,0.573C13.486,9.736,13.463,9.573,13.482,9.458z"/>
	<path fill="#FFFFFF" d="M12.99,8.964c-0.03-0.027-0.055-0.054-0.084-0.082c-0.015,0.026-0.029,0.063-0.043,0.125
		C12.98,9.38,13.011,9.135,12.99,8.964z"/>
	<path fill="#FFFFFF" d="M12.511,9.286c0.002-0.046,0-0.097-0.007-0.142c-0.013-0.095-0.047-0.16-0.09-0.057
		c-0.024-0.03-0.015-0.017,0,0c-0.01,0.025-0.021,0.059-0.035,0.108c0.034,0.105,0.059,0.159,0.079,0.181
		c-0.011,0.058-0.011,0.129-0.024,0.182c0.025,0.137,0.161,0.171,0.302,0.2l0,0c0.056,0.012,0.113,0.022,0.163,0.037
		c-0.16,0.199-0.146,0.358,0.174,0.501c-0.008-0.212-0.019-0.423-0.029-0.632c-0.119-0.168-0.288-0.288-0.472-0.394
		C12.546,9.266,12.528,9.276,12.511,9.286z"/>
	<path fill="#FFFFFF" d="M26.26,11.812C26.191,11.734,26.366,11.933,26.26,11.812L26.26,11.812z"/>
	<path fill="#FFFFFF" d="M27.957,12.419C27.887,12.341,28.063,12.542,27.957,12.419L27.957,12.419z"/>
	<path fill="#FFFFFF" d="M27.23,12.768C27.23,12.769,27.23,12.769,27.23,12.768C27.217,12.753,27.205,12.738,27.23,12.768z"/>
	<path fill="#FFFFFF" d="M27.23,12.769C27.259,12.799,27.296,12.839,27.23,12.769L27.23,12.769z"/>
	<path fill="#FFFFFF" d="M30.988,32.154c-0.013-0.272-0.153-0.436-0.35-0.54C30.646,31.89,30.79,32.051,30.988,32.154z"/>
	<path fill="#FFFFFF" d="M27.579,13.079c-0.01-0.051-0.048-0.075-0.101-0.088c-0.008,0.077,0.038,0.099,0.094,0.114
		c-0.005,0.017-0.008,0.018-0.014,0.036C27.772,13.768,27.697,12.685,27.579,13.079z"/>
	<path fill="#FFFFFF" d="M30.056,32.14C31.093,32.026,29.545,31.549,30.056,32.14L30.056,32.14z"/>
	<path fill="#FFFFFF" d="M26.047,13.039C26.155,13.16,25.98,12.961,26.047,13.039L26.047,13.039z"/>
	<path fill="#FFFFFF" d="M26.962,13.196C27.178,13.136,26.933,13,26.962,13.196L26.962,13.196z"/>
	<path fill="#FFFFFF" d="M27.267,13.248C27.49,13.912,27.396,12.646,27.267,13.248L27.267,13.248z"/>
	<path fill="#FFFFFF" d="M26.989,13.314c-0.009-0.035-0.016-0.075-0.027-0.118c-0.018,0.004-0.03,0.012-0.045,0.017
		C26.587,13.358,27.116,13.966,26.989,13.314z"/>
	<path fill="#FFFFFF" d="M30.406,32.681c0.277,0.014,0.806,0.308,0.608-0.205C30.721,32.442,30.496,32.484,30.406,32.681z"/>
	<path fill="#FFFFFF" d="M26.389,13.57C26.609,14.234,26.52,12.969,26.389,13.57L26.389,13.57z"/>
	<path fill="#FFFFFF" d="M28.84,14.154C28.948,14.276,28.771,14.073,28.84,14.154L28.84,14.154z"/>
	<path fill="#FFFFFF" d="M26.116,14C26.339,14.661,26.25,13.398,26.116,14L26.116,14z"/>
	<path fill="#FFFFFF" d="M26.424,14.05C26.353,13.972,26.53,14.171,26.424,14.05L26.424,14.05z"/>
	<path fill="#FFFFFF" d="M26.926,14.769C27.035,14.89,26.857,14.69,26.926,14.769L26.926,14.769z"/>
	<path fill="#FFFFFF" d="M26.962,15.249C26.892,15.172,27.071,15.372,26.962,15.249L26.962,15.249z"/>
	<path fill="#FFFFFF" d="M28.493,15.516C28.601,15.637,28.423,15.436,28.493,15.516L28.493,15.516z"/>
	<path fill="#FFFFFF" d="M28.951,15.595C29.062,15.718,28.882,15.518,28.951,15.595L28.951,15.595z"/>
	<path fill="#FFFFFF" d="M27.762,15.863C27.873,15.984,27.694,15.784,27.762,15.863L27.762,15.863z"/>
	<path fill="#FFFFFF" d="M12.336,8.25C12.439,8.369,12.27,8.172,12.336,8.25L12.336,8.25z"/>
	<path fill="#FFFFFF" d="M12.052,8.67C12.27,8.609,12.031,8.477,12.052,8.67L12.052,8.67z"/>
	<path fill="#FFFFFF" d="M13.116,8.852C13.222,8.972,13.05,8.775,13.116,8.852L13.116,8.852z"/>
	<path fill="#FFFFFF" d="M12.078,8.787C12.07,8.75,12.064,8.715,12.052,8.67c-0.018,0.004-0.03,0.012-0.045,0.018
		C11.674,8.83,12.186,9.428,12.078,8.787z"/>
	<path fill="#FFFFFF" d="M11.468,9.038C11.672,9.692,11.616,8.446,11.468,9.038L11.468,9.038z"/>
	<path fill="#FFFFFF" d="M12.685,9.248c0.005,0.006,0.006,0.007,0.011,0.01C12.672,9.235,12.652,9.211,12.685,9.248z"/>
	<path fill="#FFFFFF" d="M13.139,9.327C13.242,9.446,13.073,9.248,13.139,9.327L13.139,9.327z"/>
	<path fill="#FFFFFF" d="M12.016,9.76c0.024,0.034,0.039,0.029,0.049-0.001c0.04-0.117-0.021-0.576-0.12-0.169
		C11.974,9.683,11.997,9.734,12.016,9.76z"/>
	<path fill="#FFFFFF" d="M11.669,10.169C11.773,10.289,11.604,10.093,11.669,10.169L11.669,10.169z"/>
	<path fill="#FFFFFF" d="M11.974,10.221C11.907,10.144,12.078,10.342,11.974,10.221L11.974,10.221z"/>
	<path fill="#FFFFFF" d="M11.996,10.695C12.101,10.815,11.927,10.616,11.996,10.695L11.996,10.695z"/>
	<path fill="#FFFFFF" d="M12.782,11.3C12.713,11.224,12.884,11.42,12.782,11.3L12.782,11.3z"/>
	<path fill="#FFFFFF" d="M11.426,18.132c-0.011-0.231,0.002-1.279-0.188-0.816C11.247,17.548,11.235,18.597,11.426,18.132z"/>
	<path fill="#FFFFFF" d="M10.724,20.476C10.931,21.13,10.878,19.884,10.724,20.476L10.724,20.476z"/>
	<path fill="#FFFFFF" d="M11.656,20.645C11.765,20.761,11.587,20.563,11.656,20.645L11.656,20.645z"/>
	<path fill="#FFFFFF" d="M10.958,17.893C10.888,17.814,11.063,18.013,10.958,17.893L10.958,17.893z"/>
	<path fill="#FFFFFF" d="M14.659,18.391c-0.118,0.014-0.305-0.048-0.303,0.105C14.476,18.481,14.663,18.545,14.659,18.391z"/>
	<path fill="#FFFFFF" d="M14.976,18.604C14.908,18.526,15.083,18.727,14.976,18.604L14.976,18.604z"/>
	<path fill="#FFFFFF" d="M15.44,18.685C15.651,19.343,15.586,18.094,15.44,18.685L15.44,18.685z"/>
	<path fill="#FFFFFF" d="M11.974,20.854C12.081,20.976,11.907,20.774,11.974,20.854L11.974,20.854z"/>
	<path fill="#FFFFFF" d="M12.439,20.939C12.547,21.059,12.372,20.861,12.439,20.939L12.439,20.939z"/>
	<path fill="#FFFFFF" d="M9.417,17.776C9.347,17.698,9.522,17.896,9.417,17.776L9.417,17.776z"/>
	<path fill="#FFFFFF" d="M11.826,20.983C11.018,20.414,11.272,21.432,11.826,20.983L11.826,20.983z"/>
	<path fill="#FFFFFF" d="M10.851,18.243c-0.007,0.025-0.018,0.054-0.03,0.093c0.058,0.185,0.096,0.216,0.117,0.182
		C10.982,18.443,10.94,18.01,10.851,18.243z"/>
	<path fill="#FFFFFF" d="M11.75,18.503C11.958,19.157,11.902,17.91,11.75,18.503L11.75,18.503z"/>
	<path fill="#FFFFFF" d="M15,19.078C14.932,19.001,15.106,19.2,15,19.078L15,19.078z"/>
	<path fill="#FFFFFF" d="M14.698,19.18C14.806,19.302,14.63,19.104,14.698,19.18L14.698,19.18z"/>
	<path fill="#FFFFFF" d="M12.312,21.54C12.208,21.296,12.125,21.524,12.312,21.54L12.312,21.54z"/>
	<path fill="#FFFFFF" d="M12.468,21.567C12.69,21.515,12.444,21.376,12.468,21.567L12.468,21.567z"/>
	<path fill="#FFFFFF" d="M12.477,21.726c-0.002-0.05-0.003-0.103-0.008-0.156c-0.049-0.009-0.102-0.018-0.156-0.027
		C12.292,21.67,12.383,21.703,12.477,21.726z"/>
	<path fill="#FFFFFF" d="M11.792,19.446C11.924,18.472,11.302,19.019,11.792,19.446L11.792,19.446z"/>
	<path fill="#FFFFFF" d="M12.477,21.726C12.581,21.975,12.667,21.744,12.477,21.726L12.477,21.726z"/>
	<path fill="#FFFFFF" d="M12.18,21.986c0.023-0.128-0.068-0.159-0.162-0.184C11.995,21.929,12.085,21.96,12.18,21.986z"/>
	<path fill="#FFFFFF" d="M12.344,22.173c0.02-0.116-0.055-0.152-0.141-0.177c-0.001,0-0.005-0.006-0.019-0.021
		c-0.031-0.033,0.012,0.014,0.019,0.021c-0.008-0.001-0.014-0.008-0.024-0.01C12.158,22.115,12.248,22.146,12.344,22.173z"/>
	<path fill="#FFFFFF" d="M10.861,19.282C11.069,19.938,11.015,18.692,10.861,19.282L10.861,19.282z"/>
	<path fill="#FFFFFF" d="M11.728,22.219c0.022-0.13-0.071-0.16-0.165-0.187C11.54,22.161,11.633,22.192,11.728,22.219z"/>
	<path fill="#FFFFFF" d="M12.344,22.173C12.224,22.802,12.811,22.287,12.344,22.173L12.344,22.173z"/>
	<path fill="#FFFFFF" d="M9.472,19.19C9.403,19.114,9.578,19.312,9.472,19.19L9.472,19.19z"/>
	<path fill="#FFFFFF" d="M11.792,19.446C11.898,19.695,11.978,19.463,11.792,19.446L11.792,19.446z"/>
	<path fill="#FFFFFF" d="M11.861,8.993C11.964,9.237,12.044,9.008,11.861,8.993L11.861,8.993z"/>
	<path fill="#FFFFFF" d="M14.278,20.047C14.388,20.168,14.212,19.969,14.278,20.047L14.278,20.047z"/>
	<path fill="#FFFFFF" d="M15.057,20.186C14.986,20.106,15.163,20.307,15.057,20.186L15.057,20.186z"/>
	<path fill="#FFFFFF" d="M11.891,22.402c0.021-0.127-0.071-0.159-0.164-0.184C11.704,22.348,11.794,22.377,11.891,22.402z"/>
	<path fill="#FFFFFF" d="M12.052,22.59c0.023-0.128-0.067-0.161-0.161-0.188C11.867,22.532,11.956,22.563,12.052,22.59z"/>
	<path fill="#FFFFFF" d="M11.301,19.826c0.014,0.005,0.026,0.01,0.045,0.012c-0.026-0.067-0.053-0.096-0.073-0.106
		C11.228,19.703,11.217,19.793,11.301,19.826z"/>
	<path fill="#FFFFFF" d="M12.125,19.976C12.206,19.542,11.871,21.302,12.125,19.976L12.125,19.976z"/>
	<path fill="#FFFFFF" d="M13.055,20.141C13.264,20.797,13.204,19.55,13.055,20.141L13.055,20.141z"/>
	<path fill="#FFFFFF" d="M12.052,22.59C12.161,22.837,12.241,22.604,12.052,22.59L12.052,22.59z"/>
	<path fill="#FFFFFF" d="M10.889,19.912C10.82,19.834,10.993,20.032,10.889,19.912L10.889,19.912z"/>
	<path fill="#FFFFFF" d="M11.665,20.051c-0.003,0.22-0.008,0.441,0.176,0.5c0.026-0.404,0.017-0.778-0.494-0.713
		C11.36,19.992,11.542,19.994,11.665,20.051z"/>
	<path fill="#FFFFFF" d="M16.013,20.827C16.038,20.854,16.074,20.897,16.013,20.827L16.013,20.827z"/>
	<path fill="#FFFFFF" d="M15.5,20.824c0,0.003,0,0,0,0.003C15.5,20.811,15.5,20.796,15.5,20.824z"/>
	<path fill="#FFFFFF" d="M16.321,20.882C16.427,21.006,16.253,20.803,16.321,20.882L16.321,20.882z"/>
	<path fill="#FFFFFF" d="M11.221,20.441C11.326,20.563,11.152,20.362,11.221,20.441L11.221,20.441z"/>
</g>
</svg>
