<?xml version="1.0" encoding="utf-8"?>
<!-- Generator: Adobe Illustrator 16.0.0, SVG Export Plug-In . SVG Version: 6.00 Build 0)  -->
<!DOCTYPE svg PUBLIC "-//W3C//DTD SVG 1.1//EN" "http://www.w3.org/Graphics/SVG/1.1/DTD/svg11.dtd">
<svg version="1.1" id="Calque_1" xmlns="http://www.w3.org/2000/svg" xmlns:xlink="http://www.w3.org/1999/xlink" x="0px" y="0px"
	 width="50px" height="55px" viewBox="0 0 50 55" enable-background="new 0 0 50 55" xml:space="preserve">
<g>
	<path fill="#513628" d="M14.032,31.337C14.292,31.271,14.002,31.111,14.032,31.337L14.032,31.337z"/>
	<path fill="#513628" d="M10.623,31.268C10.88,31.202,10.593,31.043,10.623,31.268L10.623,31.268z"/>
	<path fill="#513628" d="M10.088,31.353C10.007,31.265,10.209,31.492,10.088,31.353L10.088,31.353z"/>
	<path fill="#513628" d="M10.623,31.268C10.365,31.333,10.649,31.492,10.623,31.268L10.623,31.268z"/>
	<path fill="#513628" d="M12.976,31.691c-0.052,0.049-0.079,0.113-0.094,0.183c-0.021-0.013-0.033-0.043-0.063-0.033
		c-0.065,0.022-0.15,0.099-0.261,0.268c0.075,0.166,0.143,0.241,0.199,0.273c0.065,0.033,0.114-0.009,0.15-0.074
		c0.072,0.319,0.173,0.558-0.251,0.234c0.15,0.561,0.632,0.648,0.042,0.916c0.248,0.039,0.401,0.156,0.551,0.28
		C13.106,33.1,13.402,32.079,12.976,31.691z"/>
	<path fill="#513628" d="M9.01,31.343c0.003,0.121,0.01,0.24,0.013,0.361c0.095,0.017,0.186,0.032,0.278,0.053
		c0.281,0.352,0.65,0.625,0.784,0.183c-0.355-0.124-0.397-0.899-0.036-0.838c-0.108-0.16-0.17-0.28-0.213-0.384
		c0.099,0.087,0.252,0.123,0.399-0.062c-0.229-0.173-0.364-0.218-0.436-0.205c0.082-0.206,0.548-0.065,1.055,0.244
		c-0.027-0.495-0.566-0.721-1.039-0.74c0.018-0.186-0.046-0.544-0.154-0.13c0.021,0.064,0.038,0.098,0.054,0.134
		c-0.129,0.003-0.252,0.02-0.352,0.055c0.068-0.153-0.096-0.492-0.416-0.134c0.026,0.026,0.043,0.033,0.067,0.057
		c-0.048,0.025-0.028,0.159,0.171,0.179c-0.022-0.052-0.039-0.06-0.059-0.088c0.053,0.032,0.094,0.046,0.13,0.046
		c-0.024,0.013-0.054,0.022-0.072,0.042c0.061,0.075,0.09,0.183,0.133,0.273c-0.022,0-0.064,0.014-0.166,0.072
		c-0.292,0.381,0.122,0.052,0.176-0.049c0.08,0.182,0.13,0.388,0.15,0.622c-0.296-0.026-0.184,0.169,0.027,0.231
		c0,0.003,0.002,0.01,0.002,0.016c-0.183-0.032-0.368-0.064-0.551-0.097c0.013,0.042,0.038,0.097,0.071,0.162
		C9.022,31.343,9.016,31.343,9.01,31.343z"/>
	<path fill="#513628" d="M10.111,31.899C10.033,31.812,10.235,32.043,10.111,31.899L10.111,31.899z"/>
	<path fill="#513628" d="M10.652,31.998C10.779,32.142,10.577,31.91,10.652,31.998L10.652,31.998z"/>
	<path fill="#513628" d="M11.017,32.066c0.137-0.016,0.355,0.059,0.352-0.121C11.232,31.962,11.014,31.887,11.017,32.066z"/>
	<path fill="#513628" d="M13.549,32.519C13.347,33.839,13.65,31.89,13.549,32.519L13.549,32.519z"/>
	<path fill="#513628" d="M9.225,32.105C8.811,32.64,9.808,31.772,9.225,32.105L9.225,32.105z"/>
	<path fill="#513628" d="M11.571,32.347c-0.698,0.205,0.45,0.577-0.323,0.85c0.18,0.034,0.362,0.066,0.544,0.095
		C11.672,32.702,12.184,32.62,11.571,32.347z"/>
	<path fill="#513628" d="M9.948,32.236c-0.14,0.016-0.358-0.059-0.355,0.117C9.73,32.34,9.948,32.412,9.948,32.236z"/>
	<path fill="#513628" d="M10.499,32.517C10.417,32.424,10.623,32.659,10.499,32.517L10.499,32.517z"/>
	<path fill="#513628" d="M12.138,32.995c0.013,0.268,0,1.483,0.222,0.948C12.347,33.673,12.36,32.454,12.138,32.995z"/>
	<path fill="#513628" d="M13.947,33.317C13.849,34.376,14.019,32.601,13.947,33.317L13.947,33.317z"/>
	<path fill="#513628" d="M9.062,32.62C9.355,33.275,9.482,31.988,9.062,32.62L9.062,32.62z"/>
	<path fill="#513628" d="M9.616,32.9C9.535,32.812,9.74,33.043,9.616,32.9L9.616,32.9z"/>
	<path fill="#513628" d="M13.605,33.621C13.523,33.529,13.729,33.761,13.605,33.621L13.605,33.621z"/>
	<path fill="#513628" d="M39.308,46.136c-0.212-0.01-0.521-0.127-0.537,0.085C38.985,46.229,39.295,46.348,39.308,46.136z"/>
	<path fill="#513628" d="M38.8,46.592C37.888,45.917,38.402,47.116,38.8,46.592L38.8,46.592z"/>
	<path fill="#513628" d="M39.533,46.725C39.448,46.634,39.66,46.868,39.533,46.725L39.533,46.725z"/>
	<path fill="#513628" d="M10.183,33.546C10.104,33.458,10.307,33.688,10.183,33.546L10.183,33.546z"/>
	<path fill="#513628" d="M10.727,33.646C10.972,34.41,10.906,32.962,10.727,33.646L10.727,33.646z"/>
	<path fill="#513628" d="M12.725,34.005C12.311,34.543,13.312,33.673,12.725,34.005L12.725,34.005z"/>
	<path fill="#513628" d="M13.452,34.136C13.37,34.048,13.576,34.279,13.452,34.136L13.452,34.136z"/>
	<path fill="#513628" d="M37.718,46.575C37.982,47.348,37.874,45.881,37.718,46.575L37.718,46.575z"/>
	<path fill="#513628" d="M39.181,46.846C39.048,46.552,38.96,46.823,39.181,46.846L39.181,46.846z"/>
	<path fill="#513628" d="M39.181,46.846C39.312,47.132,39.402,46.865,39.181,46.846L39.181,46.846z"/>
	<path fill="#513628" d="M13.093,34.253c0.076,0.371-0.228,0.322-0.335,0.485C13.272,35.12,13.549,34.412,13.093,34.253z"/>
	<path fill="#513628" d="M39.967,47.723c-0.017-0.32-0.176-0.506-0.407-0.626C39.572,47.412,39.735,47.599,39.967,47.723z"/>
	<path fill="#513628" d="M9.665,33.999C9.906,34.759,9.841,33.314,9.665,33.999L9.665,33.999z"/>
	<path fill="#513628" d="M12.207,34.458C12.448,35.217,12.379,33.771,12.207,34.458L12.207,34.458z"/>
	<path fill="#513628" d="M38.673,47.302C38.937,48.074,38.829,46.607,38.673,47.302L38.673,47.302z"/>
	<path fill="#513628" d="M10.036,34.246C9.955,34.158,10.16,34.39,10.036,34.246L10.036,34.246z"/>
	<path fill="#513628" d="M13.481,34.872C13.279,36.188,13.582,34.243,13.481,34.872L13.481,34.872z"/>
	<path fill="#513628" d="M39.233,47.586C39.491,47.52,39.198,47.357,39.233,47.586L39.233,47.586z"/>
	<path fill="#513628" d="M39.259,47.961c-0.01-0.128-0.016-0.252-0.025-0.375C39.005,47.588,39.077,47.921,39.259,47.961z"/>
	<path fill="#513628" d="M37.797,47.689C37.927,47.833,37.715,47.596,37.797,47.689L37.797,47.689z"/>
	<path fill="#513628" d="M10.606,34.895C10.525,34.804,10.727,35.035,10.606,34.895L10.606,34.895z"/>
	<path fill="#513628" d="M12.774,35.106C11.601,34.687,12.402,35.596,12.774,35.106L12.774,35.106z"/>
	<path fill="#513628" d="M39.259,47.961C39.393,48.25,39.48,47.979,39.259,47.961L39.259,47.961z"/>
	<path fill="#513628" d="M14.974,35.866C14.892,35.775,15.094,36.01,14.974,35.866L14.974,35.866z"/>
	<path fill="#513628" d="M38.373,48.162C38.242,47.872,38.151,48.139,38.373,48.162L38.373,48.162z"/>
	<path fill="#513628" d="M39.015,49.563c0.438,0.202,0.538,0.704,0.975,0.91c-0.312-0.976-1.28-1.359-1.616-2.312
		C38.011,48.802,38.765,48.957,39.015,49.563z"/>
	<path fill="#513628" d="M10.082,35.348C10.206,35.488,10.003,35.257,10.082,35.348L10.082,35.348z"/>
	<path fill="#513628" d="M33.771,13.391c0.003,0.062,0.007,0.124,0.013,0.187c0.3,0.042,0.463,0.218,0.555,0.459
		c0.403,0.095,0.766,1.235,1.101,0.743c-0.191-0.349-0.615-0.476-0.759-0.867C34.325,13.877,33.771,12.512,33.771,13.391z"/>
	<path fill="#513628" d="M35.71,13.724C36.248,13.245,35.064,13.307,35.71,13.724L35.71,13.724z"/>
	<path fill="#513628" d="M36.418,13.848C36.316,13.108,35.646,13.747,36.418,13.848L36.418,13.848z"/>
	<path fill="#513628" d="M14.645,36.534c0.183,0.033,0.208-0.107,0.355-0.117C14.863,36.084,14.576,36.228,14.645,36.534z"/>
	<path fill="#513628" d="M15.544,36.518c0.632,0.28,1.102,1.712,1.691,1.396C16.604,37.629,16.134,36.198,15.544,36.518z"/>
	<path fill="#513628" d="M39.331,48.886C39.194,48.596,39.109,48.866,39.331,48.886L39.331,48.886z"/>
	<path fill="#513628" d="M35.401,14.219c0.042-0.567-0.482-0.596-0.763-0.86c0.009,0.121,0.019,0.244,0.028,0.368
		c0.004,0.062,0.007,0.127,0.014,0.186C35.013,13.603,35.029,14.057,35.401,14.219z"/>
	<path fill="#513628" d="M37.493,14.213C37.39,13.473,36.718,14.115,37.493,14.213L37.493,14.213z"/>
	<path fill="#513628" d="M15.189,36.632c0.026-0.149-0.079-0.186-0.189-0.215C14.974,36.567,15.078,36.603,15.189,36.632z"/>
	<path fill="#513628" d="M39.331,48.886c-0.026,0.153,0.085,0.188,0.196,0.221C39.55,48.954,39.442,48.919,39.331,48.886z"/>
	<path fill="#513628" d="M36.095,14.157c-0.095-0.179-0.183-0.358-0.385-0.434C35.482,14.007,35.58,14.118,36.095,14.157z"/>
	<path fill="#513628" d="M37.916,15.204c-0.619-0.339-0.746-1.144-1.498-1.356C36.828,14.258,37.379,15.572,37.916,15.204z"/>
	<path fill="#513628" d="M15.57,37.065c-0.084-0.176-0.176-0.354-0.381-0.434c0.006,0.124,0.013,0.248,0.019,0.368
		C15.329,37.023,15.449,37.042,15.57,37.065z"/>
	<path fill="#513628" d="M17.017,37.146c0.026-0.149-0.079-0.186-0.192-0.218C16.802,37.078,16.906,37.114,17.017,37.146z"/>
	<path fill="#513628" d="M37.874,48.802c-0.019,0.152,0.088,0.188,0.199,0.221C38.096,48.869,37.988,48.834,37.874,48.802z"/>
	<path fill="#513628" d="M39.527,49.106c-0.023,0.151,0.084,0.187,0.195,0.22C39.745,49.176,39.641,49.137,39.527,49.106z"/>
	<path fill="#513628" d="M37.493,14.213c-0.02,0.153,0.082,0.188,0.192,0.218C37.704,14.278,37.601,14.242,37.493,14.213z"/>
	<path fill="#513628" d="M17.206,37.362c0.026-0.149-0.075-0.186-0.189-0.216C16.991,37.297,17.099,37.332,17.206,37.362z"/>
	<path fill="#513628" d="M38.073,49.022c-0.046,0.304,0.169,0.375,0.394,0.44C38.373,49.28,38.281,49.098,38.073,49.022z"/>
	<path fill="#513628" d="M39.723,49.326c-0.023,0.149,0.085,0.188,0.198,0.218C39.94,49.395,39.836,49.358,39.723,49.326z"/>
	<path fill="#513628" d="M36.284,14.372c0.019-0.153-0.085-0.186-0.189-0.215C36.072,14.311,36.174,14.343,36.284,14.372z"/>
	<path fill="#513628" d="M37.686,14.431c-0.023,0.15,0.081,0.186,0.188,0.215C37.894,14.493,37.789,14.46,37.686,14.431z"/>
	<path fill="#513628" d="M10.669,36.358c0.025-0.149-0.079-0.186-0.189-0.216C10.453,36.293,10.558,36.329,10.669,36.358z"/>
	<path fill="#513628" d="M15.234,37.552c-0.007-0.184-0.016-0.369-0.026-0.552c-0.182-0.032-0.362-0.067-0.547-0.098
		C14.563,37.372,15.055,37.322,15.234,37.552z"/>
	<path fill="#513628" d="M15.766,37.28c0.022-0.146-0.082-0.183-0.196-0.215C15.547,37.219,15.651,37.255,15.766,37.28z"/>
	<path fill="#513628" d="M17.401,37.577c0.026-0.146-0.081-0.183-0.195-0.215C17.187,37.512,17.287,37.548,17.401,37.577z"/>
	<path fill="#513628" d="M39.921,49.544c0.12,0.287,0.319,0.506,0.59,0.658C40.518,49.805,40.318,49.586,39.921,49.544z"/>
	<path fill="#513628" d="M35.59,14.438c0.023-0.153-0.081-0.189-0.188-0.218C35.378,14.372,35.479,14.408,35.59,14.438z"/>
	<path fill="#513628" d="M36.473,14.588c0.023-0.15-0.081-0.187-0.188-0.216C36.261,14.525,36.365,14.562,36.473,14.588z"/>
	<path fill="#513628" d="M37.874,14.646c0.092,0.179,0.18,0.362,0.379,0.433C38.298,14.773,38.09,14.705,37.874,14.646z"/>
	<path fill="#513628" d="M10.861,36.573c0.023-0.146-0.082-0.183-0.192-0.215C10.643,36.508,10.747,36.548,10.861,36.573z"/>
	<path fill="#513628" d="M15.955,37.499c0.026-0.15-0.082-0.186-0.189-0.219C15.736,37.434,15.84,37.47,15.955,37.499z"/>
	<path fill="#513628" d="M17.591,37.796c0.029-0.15-0.079-0.186-0.189-0.219C17.375,37.728,17.479,37.766,17.591,37.796z"/>
	<path fill="#513628" d="M38.467,49.463c-0.019,0.149,0.082,0.188,0.199,0.218C38.686,49.527,38.578,49.492,38.467,49.463z"/>
	<path fill="#513628" d="M38.676,49.866c0.343,0.323,0.431,0.248,0.339-0.303c-0.143,0.007-0.165,0.15-0.349,0.117
		C38.67,49.743,38.673,49.805,38.676,49.866z"/>
	<path fill="#513628" d="M35.778,14.652c0.022-0.153-0.081-0.186-0.188-0.215C35.566,14.588,35.672,14.623,35.778,14.652z"/>
	<path fill="#513628" d="M36.662,14.806c0.022-0.153-0.079-0.188-0.189-0.218C36.45,14.744,36.558,14.776,36.662,14.806z"/>
	<path fill="#513628" d="M11.05,36.792c0.026-0.15-0.078-0.186-0.189-0.219C10.834,36.727,10.936,36.762,11.05,36.792z"/>
	<path fill="#513628" d="M16.144,37.717c0.026-0.152-0.082-0.188-0.189-0.218C15.928,37.648,16.033,37.685,16.144,37.717z"/>
	<path fill="#513628" d="M17.783,38.01c0.025-0.149-0.082-0.182-0.192-0.214C17.567,37.949,17.668,37.981,17.783,38.01z"/>
	<path fill="#513628" d="M35.972,14.868c0.019-0.153-0.082-0.187-0.193-0.216C35.759,14.803,35.863,14.839,35.972,14.868z"/>
	<path fill="#513628" d="M36.854,15.024c0.02-0.156-0.082-0.189-0.192-0.219C36.642,14.959,36.747,14.991,36.854,15.024z"/>
	<path fill="#513628" d="M11.05,36.792C11.174,37.078,11.268,36.812,11.05,36.792L11.05,36.792z"/>
	<path fill="#513628" d="M15.234,37.552C15.097,38.281,15.785,37.688,15.234,37.552L15.234,37.552z"/>
	<path fill="#513628" d="M16.335,37.933c0.026-0.15-0.078-0.189-0.192-0.216C16.118,37.864,16.225,37.9,16.335,37.933z"/>
	<path fill="#513628" d="M34.377,14.594C34.508,14.884,34.589,14.61,34.377,14.594L34.377,14.594z"/>
	<path fill="#513628" d="M35.972,14.868C36.046,15.432,36.691,14.816,35.972,14.868L35.972,14.868z"/>
	<path fill="#513628" d="M36.854,15.024C36.984,15.311,37.069,15.038,36.854,15.024L36.854,15.024z"/>
	<path fill="#513628" d="M14.697,37.636C14.824,37.923,14.915,37.655,14.697,37.636L14.697,37.636z"/>
	<path fill="#513628" d="M16.335,37.933C16.463,38.219,16.554,37.955,16.335,37.933L16.335,37.933z"/>
	<path fill="#513628" d="M11.738,10.185c0.13,0.15,0.267,0.297,0.4,0.443c0.359,0.391,0.792,0.769,1.108,1.189
		c-0.003-0.006-0.088,0.078-0.234,0.218c0.091,0.238,0.059,1.017-0.189,0.225c0.003-0.023,0.01-0.033,0.013-0.052
		c-0.72,0.714-2.155,2.161-2.311,2.35c-0.828,0.98-1.544,2.069-2.128,3.252c-0.636,1.287-1.134,2.705-1.35,4.217
		c0.242-0.085,0.164,0.651-0.062,0.538c-0.084,0.906-0.065,1.842,0.098,2.8c0.028,0.161,0.07,0.321,0.104,0.48
		c-0.011,0.034-0.02,0.044-0.032,0.09c0.045,0.142,0.083,0.231,0.114,0.285c0.11,0.455,0.234,0.909,0.385,1.361
		c0.244,0.724,0.479,1.552,0.847,2.243c-0.185-0.763-0.292-1.58-0.342-2.408c0.082-0.018,0.146-0.055,0.144-0.168
		c-0.048,0.005-0.104,0.003-0.159,0C8.009,24.5,8.61,21.648,9.948,20.235c0.026,0.075,0.052,0.156,0.078,0.235
		c0.157-0.415,0.234,0.358,0.153,0.492c0.192,0.662,0.381,1.412,0.596,2.148c0.036,0.019,0.085,0.071,0.13,0.189
		c0.903-0.121,0.916,0.547,0.877,1.265c-0.326-0.104-0.32-0.496-0.316-0.887c-0.215-0.101-0.541-0.104-0.561-0.378
		c-0.029-0.003-0.055-0.013-0.078-0.023c0.381,1.291,0.851,2.516,1.555,3.152c-1.007-4.067,0.056-7.64,2.917-10.784
		c0.739,1.717,0.834,4.618,2.457,5.697c-0.857-1.91-0.952-3.634-0.457-5.218c0.042-0.003,0.085-0.003,0.124-0.003
		c-0.032-0.049-0.075-0.143-0.13-0.306c0.176-0.72,0.287,0.091,0.218,0.303c1.519-0.01,3.028,1.31,4.543,1.395
		c-0.909-1.059-2.353-1.662-3.431-2.281c-0.118-0.068-0.232-0.137-0.336-0.205c0.045,0.3-0.007,0.766-0.222,0.091
		c0.02-0.091,0.039-0.149,0.062-0.195c-0.244-0.169-0.453-0.345-0.609-0.535c0.205,1.141-0.717,0.075-0.124-0.176
		c-0.026-0.042-0.056-0.084-0.079-0.127c3.758-2.05,7.496-1.434,11.23-0.147c-1.991-1.733-3.985-2.402-5.97-3.979
		c5.102-0.448,9.197-0.541,13.893,3.171c-0.02,0.161-0.014,0.114,0.002,0c0.904,0.715,1.829,1.558,2.791,2.581
		c-0.016,0.014-0.032,0.027-0.051,0.042c-0.008-0.01-0.001-0.001,0,0c-0.346,0.303-0.692,0.598-1.038,0.87
		c0.009-0.089,0.004-0.218-0.016-0.326c-0.03-0.176-0.092-0.29-0.16-0.104c-0.02,0.045-0.039,0.108-0.056,0.199
		c0.056,0.163,0.099,0.256,0.133,0.305c-0.218,0.166-0.432,0.31-0.647,0.458c-0.02-0.285-0.119-0.598-0.237-0.055
		c0.025,0.073,0.048,0.127,0.068,0.174c-0.812,0.533-1.627,0.913-2.448,0.979c-1.848-2.134-3.686-3.611-5.514-4.393
		c1.672,1.427,4.673,3.777,5.527,5.419c-3.813,4.256-7.672,1.219-11.521-1.724c2.089,1.919,4.185,3.21,6.287,5.86
		c-1.512,1.186-3.024,2.027-4.536,1.981l-0.828-0.906c-1.089-1.369-2.354-2.587-3.441-3.957c0.541,1.75,2.975,3.957,3.761,5.765
		c-1.467,1.099-1.431,2.555-3.308,3.55c-2.053-2.54-3.103-4.837-3.999-7.095c-0.521,0.727,1.597,4.295,2.48,6.218
		c-1.007,1.422-1.933,4.013-3.935,4.67c-0.029-0.117-0.098-0.214-0.214-0.211c-0.006,0.11-0.013,0.215-0.172,0.15
		c0.003,0.059,0.006,0.117,0.009,0.178c-0.026,0.004-0.047,0.017-0.075,0.023c-0.394-0.616-0.868-1.476-1.348-2.385
		c0.015-0.021,0.042-0.03,0.048-0.059c-0.037,0-0.061-0.014-0.09-0.021c-1.528-2.904-3.098-6.26-2.341-3.801
		c0.042,0.139,0.108,0.3,0.189,0.483c-0.162,0.862-0.082,0.436,0.001,0.001c0.163,0.364,0.396,0.814,0.663,1.335
		c-0.009-0.01-0.005-0.007-0.022-0.026c-0.065-0.071-0.013-0.01,0.027,0.036c0.317,0.619,0.681,1.35,1.039,2.154
		c-0.019,0.245-0.026,0.482,0.209,0.505c-0.01-0.025-0.002-0.032-0.009-0.052c0.266,0.629,0.515,1.304,0.736,2.011
		c-0.063,0.342-0.04,0.215,0.001,0.003c0.041,0.13,0.088,0.258,0.126,0.392c-0.117,0.121-0.249,0.267-0.387,0.427
		c-0.014-0.17-0.071-0.323-0.154,0.003c0.019,0.059,0.033,0.085,0.048,0.117c-0.264,0.304-0.56,0.639-0.881,0.962
		c-0.069-0.059-0.127-0.127-0.204-0.176c0.01,0.11,0.073,0.18,0.108,0.273c-0.098,0.094-0.196,0.179-0.297,0.268
		c-0.105-0.352-0.523-0.434-0.719-0.708c0.078,0.379-0.013,0.568-0.335,0.483c0.062-0.936,0.068-0.991,0.071-2.347
		c-0.182-0.033-0.365-0.065-0.544-0.099c0.346,0.669,0.378,0.552-0.143,0.884c0.769,0.388-0.489,0.771,0.434,1.528
		c-0.574,0.052-0.577-0.392-0.926-0.527c0.154,0.476,0.639,1.202,1.077,1.469c-0.257,0.095-0.519,0.153-0.784,0.124
		c-0.194-0.3-0.373-0.622-0.551-0.941c0.034,0.017,0.068,0.032,0.108,0.045c0.026-0.149-0.079-0.186-0.192-0.214
		c-0.004,0.022,0.012,0.028,0.015,0.048c-0.011-0.02-0.024-0.038-0.034-0.059c0.007,0.004,0.012,0.007,0.02,0.011
		c0.021-0.111-0.039-0.153-0.111-0.187c-0.404-0.771-0.764-1.587-1.082-2.401c0.309,0.064,0.761,0.289,0.721-0.042
		c-0.189,0.038-0.597-0.174-0.792-0.145c-0.154-0.4-0.3-0.801-0.434-1.196c0.272,0.17,0.691-0.328-0.102-0.312
		C8.333,31.18,8.192,30.733,8.062,30.3c0.326,0.267,0.432,0.73,0.896,0.884c0.135-0.839-0.418-1.069-1.01-1.265
		c-0.256-0.874-0.468-1.657-0.633-2.24c0.088,2.227,1.473,7.479,3.569,11.392c0.606-0.153,1.228-1.51,1.822-0.831
		c2.346,3.871,6.951,7.681,10.213,9.662c0.551-0.293,0.284-0.785,0.782-1.085c1.894,1.248,3.788,2.78,5.684,2.939
		c-0.18-0.473-0.307-0.932-0.255-1.343c2.412,1.398,4.834,2.698,7.252,3.327c-0.551-0.905-0.838-1.746-0.792-2.503
		c1.987,1.535,3.97,1.454,5.964,2.757c0.58-0.286,0.157-0.82,0.241-1.225c1.3,0.766,2.581,0.261,3.897,1.73
		c0.994-1.466-0.251-3.49-0.091-5.162c0.431,0.283,0.864,0.521,1.297,0.573c-0.13-2.001-0.782-4.139-0.893-6.137
		c0.678-0.354,1.388,1.212,2.065,1.021c-0.215-2.458-1.216-5.101-1.685-7.62c0.509,0.092,1.033,1.121,1.525,0.372
		c-0.698-2.145-1.528-4.321-1.906-6.382c0.43,0.32,0.85,0.396,1.261,0.047c-1.815-3.961-3.592-7.904-7.489-12.35
		c0.407-0.333,0.814-0.662,1.226-0.994c-2.858-2.473-6.482-5.139-8.718-5.41c0.022-0.02-0.15-0.192-0.036-0.006
		c-0.218-0.15-0.437-0.293-0.658-0.431c-0.029,0-0.059-0.006-0.085-0.006c0.017-0.006,0.036-0.006,0.053-0.013
		c-0.138,0.029-0.672-0.346-0.828-0.42c-0.277-0.14-0.554-0.277-0.83-0.404c-0.551-0.257-1.109-0.489-1.672-0.685
		c-1.135-0.388-2.276-0.593-3.396-0.648c-2.376-0.108-4.689,0.339-6.75,1.16c-0.41,0.163-0.805,0.349-1.196,0.538
		c0.296,0.574,0.662,1.079,1.225,1.408c-0.423,0.832-0.746-0.847-1.636-0.557c-0.003-0.206-0.045-0.404-0.104-0.594
		c-0.215,0.118-0.404,0.28-0.603,0.42c0.196,0.192,0.375,0.398,0.47,0.688c1.104-0.078,0.094,0.851,0,0
		c-0.339,0.003-0.531,0.342-0.558-0.372c-0.205,0.023-0.303,0.179-0.241,0.512c-0.115-0.189-0.206-0.397-0.293-0.609
		c-0.528-0.075-1.049-0.792-1.457-1.32c-0.082,1.257,0.906,0.685,0.929,1.509c-0.851,0.091-0.857-0.583-1.378-0.792
		c-0.355-0.059-0.225,0.45-0.512,0.469C12.643,10.99,12.008,10.25,11.738,10.185z M8.527,18.446
		C9.411,17.931,7.905,19.264,8.527,18.446L8.527,18.446z M7.553,21.043C7.824,19.997,7.915,22.204,7.553,21.043L7.553,21.043z
		 M7.383,23.507c-0.003-0.274,0.326-0.16,0.538-0.183C7.924,23.595,7.595,23.478,7.383,23.507z M8.41,22.028
		C8.677,20.979,8.775,23.185,8.41,22.028L8.41,22.028z M8.371,21.19c-0.003-0.273,0.326-0.159,0.538-0.186
		C8.912,21.275,8.58,21.161,8.371,21.19z M9.156,20.496C9.424,19.45,9.521,21.653,9.156,20.496L9.156,20.496z M9.381,19.427
		C9.052,19.398,9.196,18.994,9.381,19.427C9.71,19.457,9.564,19.86,9.381,19.427z M9.072,18.541
		c0.052-0.339,0.528-0.186,0.544,0.095C9.512,19.02,9.375,18.566,9.072,18.541z M9.903,18.964
		C9.782,18.824,10.088,19.179,9.903,18.964L9.903,18.964z M10.209,19.851C10.091,19.714,10.398,20.062,10.209,19.851L10.209,19.851z
		 M10.085,17.055C10.353,16.005,10.45,18.215,10.085,17.055L10.085,17.055z M11.61,20.926C11.878,19.88,11.982,22.086,11.61,20.926
		L11.61,20.926z M11.574,14.265C11.76,14.48,11.454,14.128,11.574,14.265L11.574,14.265z M11.522,18.971
		C11.79,17.921,11.887,20.131,11.522,18.971L11.522,18.971z M10.704,18.828c0.336-0.825,0.316,1.036,0.339,1.444
		C10.704,21.096,10.727,19.238,10.704,18.828z M11.691,22.604C10.828,21.842,11.923,20.871,11.691,22.604
		C12.021,22.637,11.878,23.041,11.691,22.604z M17.447,23.902C17.33,23.762,17.639,24.114,17.447,23.902L17.447,23.902z
		 M29.332,22.067c2.591-0.346,5.172-1.564,7.767-0.446c2.32,3.382,2.1,6.156,3.396,9.298c-2.696,0.153-5.407-1.502-8.105-2.475
		C29.874,25.902,31.946,23.879,29.332,22.067z M40.106,44.965c-0.017-0.166-0.043-0.322-0.192-0.368
		c0.01,0.111,0.017,0.223,0.026,0.333c-1.549-0.31-3.1-1.023-4.654-1.669c-0.837-1.747-0.208-3.128-0.544-4.751
		c1.528,0.155,3.067,0.53,4.605,1.123c0.922,1.939,0.639,3.582,1.089,5.404C40.327,45.021,40.217,44.984,40.106,44.965z
		 M33.96,36.524c-0.439-2.249-0.87-4.487-1.313-6.732c2.444-0.238,4.905,1.486,7.366,2.551c0.172,1.842,0.755,3.781,0.837,5.603
		l0.265,0.834C38.741,39.086,36.343,36.893,33.96,36.524z M34.267,44.036c-2.138-0.179-4.285-1.251-6.427-2.343
		c-1.196-2.517-0.694-4.608-1.528-7.033c2.206-0.449,4.422,1.874,6.632,2.128C33.875,39.324,33.967,41.653,34.267,44.036z
		 M30.353,26.417c1.835,3.263,1.776,6.069,2.327,9.021c-2.888-0.742-5.775-1.625-8.652-4.66
		C23.075,27.304,27.378,24.658,30.353,26.417z M12.464,36.14c0.097,0.039,0.161,0.111,0.236,0.17
		c-0.103,0.087-0.207,0.169-0.313,0.244c-0.03-0.029-0.065-0.049-0.089-0.081C12.259,36.254,12.321,36.152,12.464,36.14z
		 M11.926,36.225c0.048,0.183,0.162,0.307,0.206,0.492c-0.07,0.042-0.14,0.081-0.211,0.117
		C11.636,36.593,11.437,36.234,11.926,36.225z M21.893,46.116c-2.502-1.78-8.521-5.567-8.283-8.845
		c0.113,0.234,0.188,0.019,0.002-0.011c0.017-0.231,0.059-0.463,0.143-0.688c0.109,0.531,0.418,0.89,0.942,1.062
		c-0.242-0.423-0.553-0.775-0.938-1.068c0.05-0.135,0.14-0.262,0.214-0.392c0.045,0.273,0.389,0.583,0.688,0.727
		c-0.006-0.121-0.01-0.244-0.016-0.368c-0.599,0.16-0.199-0.551-0.521-0.632c0.179-0.248,0.4-0.489,0.681-0.721
		c0.569,0.46,1.139,0.938,1.708,1.414c-0.018,0.03,0.007,0.104,0.124,0.117c-0.008-0.019-0.014-0.019-0.022-0.032
		c0.019,0.017,0.038,0.032,0.057,0.046c-0.013-0.003-0.022-0.01-0.035-0.014c-0.026,0.15,0.082,0.186,0.189,0.216
		c0.008-0.046-0.013-0.068-0.027-0.095c1.875,1.564,3.755,3.073,5.648,3.793C22.368,42.482,23.248,44.571,21.893,46.116z
		 M17.693,36.707c0.411,0.013,0.057-0.43-0.097-0.234c-0.322-2.67,1.345-4.85,2.376-7.187c1.079,2.776,3.933,1.815,5.83,4.23
		c0.193,2.688,0.753,5.472,0.753,8.114C23.59,40.66,20.63,39.51,17.693,36.707z M23.551,45.669
		c-0.769-0.834-0.398-4.143,2.232-2.946c1.47,2.066,1.708,3.989,2.695,5.941C26.49,48.403,24.555,46.745,23.551,45.669z
		 M27.176,44.291c-1.086-2.484,3.942-0.672,5.295,0.074c1.096,1.975,1.489,4.221,2.768,6.237
		C32.203,49.648,28.844,47.843,27.176,44.291z M33.5,44.652c2.569-0.528,5.241,0.459,5.834,1.167
		c0.241,0.121,0.499,1.004,0.796,2.092c-0.15,0.02-0.302,0.118-0.316,0.146c-0.097,0.184,0.182,0.157,0.377,0.079
		c0.045,0.165,0.091,0.332,0.138,0.508c-0.18-0.056-0.42,0.453,0.114,0.629c0.01-0.085,0.003-0.133,0.007-0.199
		c0.183,0.662,0.381,1.327,0.599,1.903C39.073,49.955,34.341,49.095,33.5,44.652z M45.269,51.356
		c-1.013-0.845-3.005-1.252-3.005-1.252c-0.842,0.365-2.558-3.396-1.937-4.529c0.128,0.094,0.255,0.188,0.402,0.267
		c-0.268-0.573,1.109,0.101,0.771-0.46c1.285,0.231,2.382,0.857,2.96,1.323c0.181,0.33,0.471,1.298,0.688,2.269
		c-0.058-0.022-0.143,0.004-0.118,0.169c0.085-0.022,0.118-0.052,0.138-0.081c0.05,0.229,0.092,0.446,0.13,0.665
		c-0.198-0.095-0.193-0.375-0.268-0.584c-0.811-0.195,0.128,1.435,0.296,0.736C45.455,50.675,45.482,51.314,45.269,51.356z
		 M40.85,45.287c0.139,0.011,0.269,0.04,0.404,0.059C41.128,45.396,40.991,45.354,40.85,45.287z M46.113,46.507
		c-1.541,0.006-3.386-1.881-4.925-2.147c-0.149-1.666-0.498-3.888,1.473-5.035C45.39,40.999,45.905,44.607,46.113,46.507z
		 M47.416,41.484c-2.209-0.801-4.604-2.549-5.739-4.188c-0.71-1.027-0.748-4.083,0.076-5.339
		C44.878,33.475,46.922,38.988,47.416,41.484z M46.873,34.263c-2.089-0.489-6.701-3.986-5.89-6.043
		C44.8,28.942,46.204,32.34,46.873,34.263z M45.738,28.324c-1.763-0.166-3.523-0.208-5.3-1.02c-1.271-2.878-1.954-5.609-4.125-8.695
		C40.726,15.52,44.61,24.866,45.738,28.324z M19.282,12.821C19.468,13.036,19.162,12.688,19.282,12.821L19.282,12.821z
		 M16.812,16.843C16.691,16.703,16.998,17.055,16.812,16.843L16.812,16.843z M16.482,15.673
		C16.668,15.888,16.362,15.536,16.482,15.673L16.482,15.673z M16.44,14.832C16.694,13.779,16.808,15.992,16.44,14.832L16.44,14.832z
		 M16.277,11.749C16.16,11.612,16.466,11.964,16.277,11.749L16.277,11.749z M15.941,15.578
		C16.199,14.525,16.31,16.742,15.941,15.578L15.941,15.578z M13.008,16.181C12.891,16.041,13.198,16.393,13.008,16.181
		L13.008,16.181z M15.215,11.84C15.397,12.059,15.094,11.707,15.215,11.84L15.215,11.84z M15.312,13.802
		C15.267,13.46,15.697,13.698,15.312,13.802c0.072,0.231,0.033,0.554,0.297,0.609C15.515,15.448,14.481,13.613,15.312,13.802z
		 M14.446,12.541C14.628,12.756,14.325,12.407,14.446,12.541L14.446,12.541z M14.771,13.711c-0.342-0.183-0.577-0.456-0.583-0.935
		C14.527,12.955,14.762,13.229,14.771,13.711z M14.801,14.268c0.313,0.893-0.583,0.395-1.059,0.375
		C13.905,14.297,14.296,14.219,14.801,14.268z M13.162,13.708C12.308,12.688,14.957,13.479,13.162,13.708L13.162,13.708z"/>
	<path fill="#513628" d="M7.182,6.114C8.107,6.44,8.968,6.768,9.738,6.789c0.06,0.213,0.338,0.229,0.533,0.319
		c-0.006,0.395-0.01,0.786,0.306,0.887c0.035-0.591,0.001-1.12-0.499-1.227c0.208-0.024,0.416-0.052,0.606-0.145
		c0.48,0.098,0.707,0.381,0.907,0.623c-0.038,0-0.082,0.057-0.134,0.271c0.247,0.795,0.275,0.02,0.186-0.217
		c0.123,0.144,0.263,0.239,0.437,0.274c0.058,0.114,0.094,0.103,0.114,0.031c0.016-0.001,0.023,0.011,0.04,0.01
		c-0.01-0.01-0.021-0.018-0.033-0.03c0.052-0.246-0.047-0.947-0.218-0.257c0.015,0.049,0.025,0.06,0.039,0.098
		c-0.367-0.337-0.738-0.671-1.105-0.981c-1.685-1.417-3.604-2.741-5.58-3.402c-1.13-0.378-2.268-0.58-3.373-0.535
		C1.618,6.629,3.864,4.468,7.182,6.114z"/>
	<path fill="#513628" d="M10.294,8.617c0.062,0.068,0.124,0.134,0.188,0.199C10.473,8.568,10.405,8.311,10.294,8.617z"/>
	<path fill="#513628" d="M8.71,7.118c0.137,0.114,0.277,0.235,0.414,0.356C9.117,7.379,9.114,7.284,9.107,7.187
		C8.977,7.164,8.84,7.141,8.71,7.118z"/>
	<path fill="#513628" d="M13.449,8.819c-0.026-0.03-0.049-0.056-0.072-0.078c-0.153-0.16-0.316-0.32-0.476-0.479
		c0.059,0.381,0.342,0.554,0.313,1.016C13.455,9.312,13.416,9.024,13.449,8.819z"/>
	<path fill="#513628" d="M12.575,7.946c-0.052-0.049-0.098-0.098-0.149-0.146c-0.023,0.045-0.049,0.114-0.075,0.222
		C12.559,8.683,12.614,8.246,12.575,7.946z"/>
	<path fill="#513628" d="M11.729,8.514c0.004-0.08,0-0.17-0.012-0.252c-0.026-0.169-0.085-0.284-0.16-0.101
		c-0.045-0.052-0.027-0.03,0,0c-0.019,0.045-0.039,0.104-0.062,0.192c0.059,0.188,0.104,0.282,0.14,0.321
		c-0.018,0.104-0.018,0.228-0.043,0.324c0.045,0.241,0.285,0.302,0.536,0.354l0,0c0.099,0.02,0.198,0.039,0.289,0.066
		c-0.284,0.352-0.26,0.632,0.31,0.887c-0.016-0.375-0.036-0.75-0.052-1.121c-0.212-0.297-0.512-0.509-0.838-0.698
		C11.788,8.479,11.759,8.497,11.729,8.514z"/>
	<path fill="#513628" d="M36.092,12.991C35.968,12.854,36.28,13.206,36.092,12.991L36.092,12.991z"/>
	<path fill="#513628" d="M39.1,14.066C38.977,13.929,39.289,14.284,39.1,14.066L39.1,14.066z"/>
	<path fill="#513628" d="M37.812,14.686c0.003,0.003,0,0.001,0.003,0.003C37.786,14.658,37.767,14.633,37.812,14.686z"/>
	<path fill="#513628" d="M37.815,14.688C37.859,14.739,37.925,14.812,37.815,14.688L37.815,14.688z"/>
	<path fill="#513628" d="M44.47,49.039c-0.022-0.485-0.27-0.77-0.621-0.955C43.867,48.569,44.118,48.853,44.47,49.039z"/>
	<path fill="#513628" d="M38.43,15.238c-0.018-0.091-0.086-0.134-0.177-0.158c-0.015,0.137,0.068,0.176,0.163,0.202
		c-0.008,0.028-0.014,0.031-0.021,0.065C38.771,16.458,38.639,14.537,38.43,15.238z"/>
	<path fill="#513628" d="M42.818,49.013C44.656,48.811,41.912,47.967,42.818,49.013L42.818,49.013z"/>
	<path fill="#513628" d="M35.714,15.165C35.905,15.379,35.597,15.027,35.714,15.165L35.714,15.165z"/>
	<path fill="#513628" d="M37.337,15.445C37.718,15.337,37.284,15.096,37.337,15.445L37.337,15.445z"/>
	<path fill="#513628" d="M37.878,15.536C38.272,16.712,38.105,14.47,37.878,15.536L37.878,15.536z"/>
	<path fill="#513628" d="M37.382,15.653c-0.013-0.062-0.026-0.131-0.045-0.208c-0.032,0.006-0.056,0.02-0.082,0.029
		C36.672,15.731,37.61,16.807,37.382,15.653z"/>
	<path fill="#513628" d="M43.44,49.971c0.492,0.026,1.425,0.545,1.075-0.362C43.998,49.551,43.597,49.622,43.44,49.971z"/>
	<path fill="#513628" d="M36.319,16.106C36.711,17.283,36.551,15.041,36.319,16.106L36.319,16.106z"/>
	<path fill="#513628" d="M40.664,17.14C40.856,17.357,40.543,17,40.664,17.14L40.664,17.14z"/>
	<path fill="#513628" d="M35.837,16.866C36.232,18.039,36.072,15.8,35.837,16.866L35.837,16.866z"/>
	<path fill="#513628" d="M36.382,16.957C36.255,16.82,36.571,17.172,36.382,16.957L36.382,16.957z"/>
	<path fill="#513628" d="M37.274,18.231C37.467,18.446,37.151,18.091,37.274,18.231L37.274,18.231z"/>
	<path fill="#513628" d="M37.337,19.082C37.213,18.945,37.529,19.3,37.337,19.082L37.337,19.082z"/>
	<path fill="#513628" d="M40.048,19.554C40.24,19.769,39.924,19.414,40.048,19.554L40.048,19.554z"/>
	<path fill="#513628" d="M40.859,19.694C41.056,19.913,40.739,19.558,40.859,19.694L40.859,19.694z"/>
	<path fill="#513628" d="M38.755,20.17C38.95,20.385,38.634,20.03,38.755,20.17L38.755,20.17z"/>
	<path fill="#513628" d="M11.418,6.678C11.601,6.89,11.301,6.541,11.418,6.678L11.418,6.678z"/>
	<path fill="#513628" d="M10.916,7.424C11.301,7.316,10.877,7.082,10.916,7.424L10.916,7.424z"/>
	<path fill="#513628" d="M12.8,7.747C12.989,7.958,12.683,7.61,12.8,7.747L12.8,7.747z"/>
	<path fill="#513628" d="M10.958,7.63c-0.013-0.065-0.022-0.127-0.042-0.206c-0.032,0.006-0.055,0.02-0.082,0.029
		C10.245,7.708,11.151,8.767,10.958,7.63z"/>
	<path fill="#513628" d="M9.88,8.076C10.242,9.233,10.141,7.027,9.88,8.076L9.88,8.076z"/>
	<path fill="#513628" d="M12.034,8.448c0.01,0.01,0.013,0.013,0.019,0.019C12.014,8.425,11.979,8.382,12.034,8.448z"/>
	<path fill="#513628" d="M12.842,8.588C13.024,8.799,12.725,8.448,12.842,8.588L12.842,8.588z"/>
	<path fill="#513628" d="M10.851,9.357c0.042,0.059,0.068,0.049,0.088-0.003c0.069-0.209-0.036-1.021-0.212-0.3
		C10.776,9.217,10.818,9.308,10.851,9.357z"/>
	<path fill="#513628" d="M10.235,10.08C10.421,10.292,10.121,9.944,10.235,10.08L10.235,10.08z"/>
	<path fill="#513628" d="M10.776,10.172C10.656,10.035,10.961,10.387,10.776,10.172L10.776,10.172z"/>
	<path fill="#513628" d="M10.815,11.013C11.001,11.224,10.694,10.873,10.815,11.013L10.815,11.013z"/>
	<path fill="#513628" d="M12.207,12.084C12.086,11.948,12.389,12.296,12.207,12.084L12.207,12.084z"/>
	<path fill="#513628" d="M9.805,24.188c-0.019-0.407,0.003-2.265-0.333-1.444C9.489,23.155,9.466,25.013,9.805,24.188z"/>
	<path fill="#513628" d="M8.56,28.344C8.928,29.502,8.834,27.294,8.56,28.344L8.56,28.344z"/>
	<path fill="#513628" d="M10.212,28.638C10.405,28.85,10.091,28.497,10.212,28.638L10.212,28.638z"/>
	<path fill="#513628" d="M8.974,23.765C8.85,23.628,9.16,23.98,8.974,23.765L8.974,23.765z"/>
	<path fill="#513628" d="M15.534,24.648c-0.209,0.026-0.541-0.084-0.535,0.186C15.208,24.808,15.541,24.921,15.534,24.648z"/>
	<path fill="#513628" d="M16.095,25.026C15.974,24.889,16.284,25.244,16.095,25.026L16.095,25.026z"/>
	<path fill="#513628" d="M16.919,25.172C17.291,26.336,17.176,24.123,16.919,25.172L16.919,25.172z"/>
	<path fill="#513628" d="M10.776,29.016C10.965,29.231,10.656,28.875,10.776,29.016L10.776,29.016z"/>
	<path fill="#513628" d="M11.601,29.163C11.793,29.377,11.483,29.025,11.601,29.163L11.601,29.163z"/>
	<path fill="#513628" d="M6.243,23.56C6.122,23.422,6.432,23.774,6.243,23.56L6.243,23.56z"/>
	<path fill="#513628" d="M10.516,29.244C9.081,28.233,9.531,30.036,10.516,29.244L10.516,29.244z"/>
	<path fill="#513628" d="M8.785,24.387c-0.013,0.042-0.032,0.095-0.052,0.166c0.101,0.326,0.169,0.381,0.205,0.323
		C9.02,24.742,8.945,23.974,8.785,24.387z"/>
	<path fill="#513628" d="M10.378,24.847C10.747,26.007,10.649,23.797,10.378,24.847L10.378,24.847z"/>
	<path fill="#513628" d="M16.137,25.867C16.017,25.73,16.326,26.082,16.137,25.867L16.137,25.867z"/>
	<path fill="#513628" d="M15.603,26.049C15.795,26.265,15.482,25.913,15.603,26.049L15.603,26.049z"/>
	<path fill="#513628" d="M11.375,30.231C11.19,29.795,11.046,30.202,11.375,30.231L11.375,30.231z"/>
	<path fill="#513628" d="M11.653,30.28C12.047,30.182,11.61,29.938,11.653,30.28L11.653,30.28z"/>
	<path fill="#513628" d="M11.666,30.561c-0.004-0.091-0.007-0.186-0.013-0.28c-0.088-0.017-0.183-0.032-0.277-0.049
		C11.34,30.46,11.5,30.515,11.666,30.561z"/>
	<path fill="#513628" d="M10.453,26.519C10.688,24.792,9.586,25.762,10.453,26.519L10.453,26.519z"/>
	<path fill="#513628" d="M11.666,30.561C11.854,30.998,12.001,30.593,11.666,30.561L11.666,30.561z"/>
	<path fill="#513628" d="M11.141,31.021c0.039-0.229-0.121-0.284-0.287-0.326C10.812,30.919,10.972,30.975,11.141,31.021z"/>
	<path fill="#513628" d="M11.431,31.35c0.035-0.206-0.097-0.268-0.247-0.313c-0.002,0-0.009-0.01-0.036-0.038
		c-0.054-0.062,0.022,0.024,0.036,0.038c-0.016-0.003-0.027-0.014-0.043-0.016C11.102,31.248,11.262,31.303,11.431,31.35z"/>
	<path fill="#513628" d="M8.805,26.229C9.173,27.389,9.075,25.183,8.805,26.229L8.805,26.229z"/>
	<path fill="#513628" d="M10.339,31.431c0.039-0.229-0.124-0.283-0.29-0.329C10.007,31.329,10.17,31.385,10.339,31.431z"/>
	<path fill="#513628" d="M11.431,31.35C11.219,32.464,12.259,31.555,11.431,31.35L11.431,31.35z"/>
	<path fill="#513628" d="M6.344,26.066C6.22,25.929,6.53,26.281,6.344,26.066L6.344,26.066z"/>
	<path fill="#513628" d="M10.453,26.519C10.643,26.958,10.783,26.551,10.453,26.519L10.453,26.519z"/>
	<path fill="#513628" d="M10.577,7.995C10.76,8.428,10.9,8.021,10.577,7.995L10.577,7.995z"/>
	<path fill="#513628" d="M14.859,27.584C15.052,27.799,14.742,27.444,14.859,27.584L14.859,27.584z"/>
	<path fill="#513628" d="M16.238,27.829C16.114,27.688,16.427,28.044,16.238,27.829L16.238,27.829z"/>
	<path fill="#513628" d="M10.629,31.76c0.036-0.228-0.124-0.283-0.29-0.329C10.297,31.659,10.457,31.714,10.629,31.76z"/>
	<path fill="#513628" d="M10.916,32.089c0.039-0.228-0.12-0.284-0.287-0.329C10.587,31.988,10.744,32.043,10.916,32.089z"/>
	<path fill="#513628" d="M9.583,27.193c0.026,0.006,0.049,0.016,0.082,0.02c-0.049-0.118-0.094-0.17-0.13-0.189
		C9.453,26.975,9.433,27.135,9.583,27.193z"/>
	<path fill="#513628" d="M11.043,27.457C11.187,26.688,10.593,29.808,11.043,27.457L11.043,27.457z"/>
	<path fill="#513628" d="M12.689,27.75C13.061,28.914,12.957,26.704,12.689,27.75L12.689,27.75z"/>
	<path fill="#513628" d="M10.916,32.089C11.105,32.525,11.249,32.118,10.916,32.089L10.916,32.089z"/>
	<path fill="#513628" d="M8.853,27.343C8.733,27.206,9.039,27.558,8.853,27.343L8.853,27.343z"/>
	<path fill="#513628" d="M10.229,27.591c-0.006,0.391-0.013,0.782,0.312,0.886c0.046-0.716,0.03-1.381-0.876-1.264
		C9.688,27.486,10.01,27.49,10.229,27.591z"/>
	<path fill="#513628" d="M17.933,28.967C17.977,29.016,18.042,29.091,17.933,28.967L17.933,28.967z"/>
	<path fill="#513628" d="M17.929,28.964c0.002,0.003,0.001,0,0.003,0.003C17.904,28.935,17.883,28.91,17.929,28.964z"/>
	<path fill="#513628" d="M18.48,29.064C18.669,29.28,18.36,28.924,18.48,29.064L18.48,29.064z"/>
	<path fill="#513628" d="M9.44,28.282C9.629,28.497,9.319,28.142,9.44,28.282L9.44,28.282z"/>
</g>
</svg>
