<?xml version="1.0" encoding="utf-8"?>
<!-- Generator: Adobe Illustrator 16.0.0, SVG Export Plug-In . SVG Version: 6.00 Build 0)  -->
<!DOCTYPE svg PUBLIC "-//W3C//DTD SVG 1.1//EN" "http://www.w3.org/Graphics/SVG/1.1/DTD/svg11.dtd">
<svg version="1.1" id="Calque_1" xmlns="http://www.w3.org/2000/svg" xmlns:xlink="http://www.w3.org/1999/xlink" x="0px" y="0px"
	 width="60px" height="60px" viewBox="-5 -2.5 60 60" enable-background="new -5 -2.5 60 60" xml:space="preserve">
<circle fill="#333333" cx="25.334" cy="27.166" r="29"/>
<g>
	<path fill="#F7971C" d="M17.794,30.021C17.965,29.979,17.775,29.873,17.794,30.021L17.794,30.021z"/>
	<path fill="#F7971C" d="M15.554,29.977C15.723,29.933,15.534,29.829,15.554,29.977L15.554,29.977z"/>
	<path fill="#F7971C" d="M15.202,30.033C15.149,29.976,15.282,30.124,15.202,30.033L15.202,30.033z"/>
	<path fill="#F7971C" d="M15.554,29.977C15.385,30.019,15.571,30.124,15.554,29.977L15.554,29.977z"/>
	<path fill="#F7971C" d="M17.1,30.254c-0.034,0.032-0.051,0.075-0.061,0.12c-0.015-0.008-0.022-0.028-0.042-0.021
		c-0.042,0.014-0.098,0.063-0.171,0.177c0.05,0.108,0.094,0.157,0.13,0.179c0.043,0.021,0.075-0.007,0.098-0.049
		c0.048,0.209,0.115,0.367-0.164,0.153c0.099,0.369,0.415,0.426,0.027,0.603c0.163,0.024,0.264,0.102,0.362,0.184
		C17.185,31.181,17.38,30.511,17.1,30.254z"/>
	<path fill="#F7971C" d="M14.494,30.025c0.002,0.08,0.007,0.157,0.009,0.236c0.062,0.012,0.122,0.021,0.183,0.036
		c0.185,0.232,0.427,0.411,0.515,0.119c-0.233-0.08-0.261-0.59-0.023-0.551c-0.071-0.104-0.112-0.182-0.14-0.252
		c0.064,0.057,0.166,0.081,0.263-0.041c-0.151-0.113-0.24-0.143-0.287-0.133c0.054-0.136,0.36-0.044,0.694,0.16
		c-0.018-0.326-0.373-0.474-0.684-0.487c0.012-0.122-0.03-0.357-0.1-0.085c0.013,0.042,0.025,0.064,0.035,0.088
		c-0.085,0.001-0.166,0.014-0.231,0.036c0.045-0.101-0.063-0.323-0.274-0.089c0.018,0.018,0.029,0.023,0.044,0.038
		c-0.032,0.016-0.019,0.105,0.113,0.118c-0.015-0.035-0.026-0.039-0.04-0.059c0.035,0.021,0.062,0.031,0.086,0.031
		c-0.016,0.008-0.035,0.015-0.047,0.027c0.04,0.049,0.059,0.119,0.087,0.178c-0.015,0-0.042,0.01-0.109,0.048
		c-0.191,0.251,0.08,0.035,0.115-0.03c0.053,0.118,0.086,0.254,0.099,0.408c-0.194-0.018-0.121,0.11,0.017,0.152
		c0,0.001,0.002,0.005,0.002,0.01c-0.12-0.022-0.241-0.043-0.362-0.064c0.008,0.028,0.024,0.064,0.046,0.106
		C14.502,30.025,14.498,30.025,14.494,30.025z"/>
	<path fill="#F7971C" d="M15.217,30.391C15.166,30.334,15.299,30.484,15.217,30.391L15.217,30.391z"/>
	<path fill="#F7971C" d="M15.572,30.456C15.657,30.55,15.523,30.397,15.572,30.456L15.572,30.456z"/>
	<path fill="#F7971C" d="M15.813,30.502c0.089-0.012,0.233,0.038,0.232-0.079C15.954,30.433,15.812,30.384,15.813,30.502z"/>
	<path fill="#F7971C" d="M17.477,30.799C17.344,31.666,17.542,30.386,17.477,30.799L17.477,30.799z"/>
	<path fill="#F7971C" d="M14.636,30.525C14.363,30.879,15.019,30.307,14.636,30.525L14.636,30.525z"/>
	<path fill="#F7971C" d="M16.177,30.687c-0.46,0.134,0.295,0.378-0.213,0.559c0.119,0.022,0.238,0.043,0.357,0.062
		C16.243,30.92,16.58,30.865,16.177,30.687z"/>
	<path fill="#F7971C" d="M15.11,30.611c-0.091,0.012-0.235-0.038-0.233,0.078C14.967,30.682,15.11,30.728,15.11,30.611z"/>
	<path fill="#F7971C" d="M15.473,30.798C15.419,30.736,15.554,30.891,15.473,30.798L15.473,30.798z"/>
	<path fill="#F7971C" d="M16.549,31.11c0.008,0.178,0,0.976,0.146,0.623C16.687,31.556,16.696,30.756,16.549,31.11z"/>
	<path fill="#F7971C" d="M17.738,31.321C17.674,32.02,17.786,30.854,17.738,31.321L17.738,31.321z"/>
	<path fill="#F7971C" d="M14.528,30.865C14.721,31.297,14.804,30.45,14.528,30.865L14.528,30.865z"/>
	<path fill="#F7971C" d="M14.892,31.049C14.839,30.991,14.974,31.143,14.892,31.049L14.892,31.049z"/>
	<path fill="#F7971C" d="M17.514,31.521C17.46,31.463,17.595,31.614,17.514,31.521L17.514,31.521z"/>
	<path fill="#F7971C" d="M34.403,39.746c-0.14-0.007-0.342-0.083-0.352,0.057C34.189,39.808,34.395,39.885,34.403,39.746z"/>
	<path fill="#F7971C" d="M34.069,40.046C33.472,39.604,33.808,40.39,34.069,40.046L34.069,40.046z"/>
	<path fill="#F7971C" d="M34.552,40.134C34.496,40.074,34.635,40.228,34.552,40.134L34.552,40.134z"/>
	<path fill="#F7971C" d="M15.265,31.474C15.212,31.416,15.346,31.566,15.265,31.474L15.265,31.474z"/>
	<path fill="#F7971C" d="M15.623,31.54C15.783,32.041,15.74,31.089,15.623,31.54L15.623,31.54z"/>
	<path fill="#F7971C" d="M16.935,31.775C16.663,32.129,17.321,31.556,16.935,31.775L16.935,31.775z"/>
	<path fill="#F7971C" d="M17.413,31.861C17.359,31.803,17.495,31.955,17.413,31.861L17.413,31.861z"/>
	<path fill="#F7971C" d="M33.359,40.035C33.533,40.542,33.461,39.578,33.359,40.035L33.359,40.035z"/>
	<path fill="#F7971C" d="M34.321,40.213C34.233,40.02,34.174,40.197,34.321,40.213L34.321,40.213z"/>
	<path fill="#F7971C" d="M34.321,40.213C34.406,40.401,34.465,40.227,34.321,40.213L34.321,40.213z"/>
	<path fill="#F7971C" d="M17.177,31.938c0.05,0.244-0.15,0.213-0.221,0.317C17.294,32.508,17.477,32.043,17.177,31.938z"/>
	<path fill="#F7971C" d="M34.836,40.789c-0.012-0.21-0.114-0.332-0.267-0.409C34.576,40.585,34.684,40.709,34.836,40.789z"/>
	<path fill="#F7971C" d="M14.924,31.771C15.083,32.271,15.04,31.32,14.924,31.771L14.924,31.771z"/>
	<path fill="#F7971C" d="M16.595,32.072C16.753,32.571,16.708,31.622,16.595,32.072L16.595,32.072z"/>
	<path fill="#F7971C" d="M33.985,40.513C34.16,41.021,34.089,40.057,33.985,40.513L33.985,40.513z"/>
	<path fill="#F7971C" d="M15.168,31.934C15.115,31.876,15.25,32.028,15.168,31.934L15.168,31.934z"/>
	<path fill="#F7971C" d="M17.432,32.345C17.299,33.21,17.499,31.931,17.432,32.345L17.432,32.345z"/>
	<path fill="#F7971C" d="M34.354,40.699C34.522,40.655,34.332,40.548,34.354,40.699L34.354,40.699z"/>
	<path fill="#F7971C" d="M34.37,40.945c-0.006-0.084-0.009-0.165-0.015-0.246C34.205,40.7,34.251,40.92,34.37,40.945z"/>
	<path fill="#F7971C" d="M33.41,40.768C33.496,40.861,33.355,40.706,33.41,40.768L33.41,40.768z"/>
	<path fill="#F7971C" d="M15.542,32.359C15.489,32.302,15.623,32.453,15.542,32.359L15.542,32.359z"/>
	<path fill="#F7971C" d="M16.967,32.498C16.197,32.224,16.723,32.82,16.967,32.498L16.967,32.498z"/>
	<path fill="#F7971C" d="M34.37,40.945C34.458,41.137,34.517,40.958,34.37,40.945L34.37,40.945z"/>
	<path fill="#F7971C" d="M18.413,32.998C18.359,32.938,18.492,33.093,18.413,32.998L18.413,32.998z"/>
	<path fill="#F7971C" d="M33.789,41.078C33.702,40.887,33.644,41.062,33.789,41.078L33.789,41.078z"/>
	<path fill="#F7971C" d="M34.211,41.999c0.288,0.132,0.352,0.463,0.642,0.597c-0.205-0.643-0.841-0.893-1.062-1.519
		C33.551,41.497,34.046,41.6,34.211,41.999z"/>
	<path fill="#F7971C" d="M15.198,32.658C15.28,32.749,15.146,32.597,15.198,32.658L15.198,32.658z"/>
	<path fill="#F7971C" d="M30.765,18.229c0.002,0.042,0.004,0.082,0.009,0.123c0.197,0.027,0.305,0.144,0.365,0.302
		c0.264,0.062,0.504,0.811,0.723,0.487c-0.125-0.229-0.402-0.312-0.499-0.569C31.128,18.549,30.765,17.652,30.765,18.229z"/>
	<path fill="#F7971C" d="M32.039,18.447C32.393,18.133,31.615,18.174,32.039,18.447L32.039,18.447z"/>
	<path fill="#F7971C" d="M32.504,18.529C32.438,18.043,31.998,18.463,32.504,18.529L32.504,18.529z"/>
	<path fill="#F7971C" d="M18.198,33.437c0.119,0.021,0.136-0.069,0.232-0.076C18.34,33.14,18.152,33.235,18.198,33.437z"/>
	<path fill="#F7971C" d="M18.788,33.427c0.415,0.184,0.724,1.124,1.111,0.916C19.484,34.156,19.176,33.216,18.788,33.427z"/>
	<path fill="#F7971C" d="M34.419,41.554C34.327,41.362,34.273,41.54,34.419,41.554L34.419,41.554z"/>
	<path fill="#F7971C" d="M31.835,18.772c0.028-0.372-0.316-0.391-0.5-0.565c0.006,0.079,0.013,0.161,0.018,0.242
		c0.002,0.041,0.004,0.083,0.009,0.122C31.581,18.368,31.592,18.667,31.835,18.772z"/>
	<path fill="#F7971C" d="M33.211,18.77C33.145,18.283,32.701,18.705,33.211,18.77L33.211,18.77z"/>
	<path fill="#F7971C" d="M18.555,33.5c0.017-0.098-0.053-0.122-0.125-0.14C18.413,33.458,18.481,33.483,18.555,33.5z"/>
	<path fill="#F7971C" d="M34.419,41.554c-0.019,0.101,0.055,0.124,0.129,0.146C34.562,41.598,34.49,41.576,34.419,41.554z"/>
	<path fill="#F7971C" d="M32.292,18.733c-0.062-0.118-0.119-0.236-0.253-0.286C31.891,18.633,31.954,18.707,32.292,18.733z"/>
	<path fill="#F7971C" d="M33.487,19.42c-0.405-0.223-0.488-0.752-0.983-0.891C32.772,18.799,33.135,19.662,33.487,19.42z"/>
	<path fill="#F7971C" d="M18.804,33.785c-0.055-0.115-0.115-0.233-0.25-0.286c0.003,0.082,0.008,0.164,0.012,0.242
		C18.646,33.759,18.726,33.771,18.804,33.785z"/>
	<path fill="#F7971C" d="M19.756,33.84c0.017-0.099-0.053-0.123-0.126-0.146C19.614,33.794,19.683,33.818,19.756,33.84z"/>
	<path fill="#F7971C" d="M33.461,41.497c-0.012,0.101,0.057,0.125,0.131,0.146C33.605,41.542,33.536,41.519,33.461,41.497z"/>
	<path fill="#F7971C" d="M34.548,41.699c-0.017,0.098,0.055,0.121,0.128,0.144C34.69,41.743,34.623,41.719,34.548,41.699z"/>
	<path fill="#F7971C" d="M33.211,18.77c-0.014,0.1,0.054,0.123,0.126,0.143C33.35,18.811,33.281,18.789,33.211,18.77z"/>
	<path fill="#F7971C" d="M19.88,33.981c0.016-0.099-0.05-0.123-0.125-0.142C19.739,33.938,19.81,33.961,19.88,33.981z"/>
	<path fill="#F7971C" d="M33.592,41.643c-0.029,0.2,0.11,0.247,0.259,0.289C33.789,41.814,33.729,41.693,33.592,41.643z"/>
	<path fill="#F7971C" d="M34.676,41.843c-0.014,0.099,0.057,0.123,0.131,0.142C34.818,41.887,34.75,41.863,34.676,41.843z"/>
	<path fill="#F7971C" d="M32.417,18.874c0.01-0.102-0.057-0.123-0.125-0.141C32.275,18.833,32.344,18.854,32.417,18.874z"/>
	<path fill="#F7971C" d="M33.337,18.912c-0.014,0.099,0.054,0.123,0.124,0.142C33.475,18.953,33.405,18.932,33.337,18.912z"/>
	<path fill="#F7971C" d="M15.584,33.32c0.017-0.097-0.052-0.123-0.125-0.141C15.442,33.279,15.511,33.303,15.584,33.32z"/>
	<path fill="#F7971C" d="M18.584,34.106c-0.004-0.121-0.011-0.242-0.017-0.363c-0.12-0.021-0.238-0.044-0.359-0.064
		C18.143,33.987,18.466,33.954,18.584,34.106z"/>
	<path fill="#F7971C" d="M18.934,33.928c0.014-0.097-0.054-0.12-0.129-0.143C18.79,33.888,18.858,33.909,18.934,33.928z"/>
	<path fill="#F7971C" d="M20.008,34.122c0.017-0.097-0.054-0.121-0.128-0.141C19.867,34.08,19.934,34.104,20.008,34.122z"/>
	<path fill="#F7971C" d="M34.807,41.984c0.078,0.191,0.209,0.335,0.389,0.434C35.197,42.157,35.067,42.013,34.807,41.984z"/>
	<path fill="#F7971C" d="M31.961,18.917c0.015-0.101-0.055-0.125-0.125-0.144C31.82,18.874,31.887,18.897,31.961,18.917z"/>
	<path fill="#F7971C" d="M32.54,19.015c0.016-0.098-0.054-0.123-0.123-0.141C32.401,18.974,32.469,18.998,32.54,19.015z"/>
	<path fill="#F7971C" d="M33.461,19.054c0.06,0.117,0.119,0.237,0.25,0.285C33.74,19.137,33.603,19.092,33.461,19.054z"/>
	<path fill="#F7971C" d="M15.71,33.462c0.015-0.095-0.054-0.119-0.126-0.142C15.567,33.42,15.635,33.447,15.71,33.462z"/>
	<path fill="#F7971C" d="M19.058,34.072c0.017-0.1-0.055-0.124-0.125-0.145C18.914,34.028,18.982,34.052,19.058,34.072z"/>
	<path fill="#F7971C" d="M20.132,34.267c0.02-0.099-0.051-0.122-0.124-0.145C19.991,34.222,20.059,34.247,20.132,34.267z"/>
	<path fill="#F7971C" d="M33.851,41.934c-0.012,0.097,0.055,0.123,0.131,0.144C33.994,41.975,33.924,41.951,33.851,41.934z"/>
	<path fill="#F7971C" d="M33.987,42.198c0.227,0.212,0.285,0.162,0.224-0.199c-0.094,0.004-0.109,0.098-0.229,0.077
		C33.984,42.117,33.985,42.157,33.987,42.198z"/>
	<path fill="#F7971C" d="M32.084,19.058c0.014-0.101-0.054-0.123-0.124-0.141C31.944,19.015,32.013,19.039,32.084,19.058z"/>
	<path fill="#F7971C" d="M32.665,19.159c0.015-0.101-0.053-0.124-0.125-0.144C32.525,19.118,32.596,19.139,32.665,19.159z"/>
	<path fill="#F7971C" d="M15.834,33.606c0.018-0.099-0.051-0.122-0.124-0.145C15.693,33.563,15.759,33.586,15.834,33.606z"/>
	<path fill="#F7971C" d="M19.182,34.215c0.018-0.1-0.054-0.125-0.124-0.143C19.04,34.169,19.109,34.194,19.182,34.215z"/>
	<path fill="#F7971C" d="M20.259,34.407c0.016-0.1-0.054-0.121-0.127-0.141C20.117,34.366,20.184,34.388,20.259,34.407z"/>
	<path fill="#F7971C" d="M32.212,19.2c0.013-0.1-0.055-0.124-0.128-0.142C32.071,19.156,32.14,19.18,32.212,19.2z"/>
	<path fill="#F7971C" d="M32.79,19.302c0.015-0.102-0.053-0.124-0.125-0.144C32.652,19.259,32.72,19.28,32.79,19.302z"/>
	<path fill="#F7971C" d="M15.834,33.606C15.916,33.794,15.979,33.62,15.834,33.606L15.834,33.606z"/>
	<path fill="#F7971C" d="M18.584,34.106C18.494,34.585,18.947,34.194,18.584,34.106L18.584,34.106z"/>
	<path fill="#F7971C" d="M19.308,34.358c0.017-0.101-0.052-0.126-0.126-0.144C19.165,34.312,19.235,34.335,19.308,34.358z"/>
	<path fill="#F7971C" d="M31.164,19.019C31.248,19.209,31.302,19.029,31.164,19.019L31.164,19.019z"/>
	<path fill="#F7971C" d="M32.212,19.2C32.261,19.57,32.684,19.165,32.212,19.2L32.212,19.2z"/>
	<path fill="#F7971C" d="M32.79,19.302C32.876,19.491,32.933,19.311,32.79,19.302L32.79,19.302z"/>
	<path fill="#F7971C" d="M18.23,34.161C18.315,34.349,18.375,34.174,18.23,34.161L18.23,34.161z"/>
	<path fill="#F7971C" d="M19.308,34.358C19.392,34.544,19.452,34.37,19.308,34.358L19.308,34.358z"/>
	<path fill="#F7971C" d="M16.286,16.123c0.086,0.098,0.175,0.194,0.263,0.291c0.236,0.257,0.521,0.505,0.728,0.781
		c-0.001-0.004-0.058,0.051-0.153,0.143c0.059,0.157,0.038,0.668-0.125,0.147c0.001-0.015,0.007-0.021,0.009-0.034
		c-0.474,0.469-1.416,1.42-1.519,1.544c-0.544,0.645-1.014,1.36-1.398,2.137c-0.417,0.845-0.746,1.778-0.887,2.771
		c0.158-0.056,0.107,0.428-0.041,0.354c-0.056,0.596-0.043,1.211,0.064,1.841c0.019,0.104,0.046,0.21,0.069,0.314
		c-0.008,0.022-0.014,0.028-0.022,0.059c0.031,0.094,0.056,0.152,0.076,0.188c0.072,0.298,0.153,0.598,0.253,0.894
		c0.16,0.478,0.314,1.02,0.557,1.475c-0.122-0.503-0.192-1.039-0.226-1.583c0.055-0.012,0.097-0.036,0.096-0.11
		c-0.033,0.003-0.068,0.002-0.104,0c-0.089-1.806,0.306-3.68,1.185-4.608c0.018,0.05,0.034,0.103,0.051,0.155
		c0.104-0.273,0.154,0.236,0.101,0.323c0.126,0.435,0.25,0.928,0.391,1.411c0.024,0.012,0.057,0.047,0.086,0.124
		c0.593-0.079,0.602,0.36,0.576,0.832c-0.214-0.068-0.21-0.326-0.208-0.583c-0.142-0.066-0.355-0.068-0.369-0.249
		c-0.019-0.001-0.036-0.008-0.051-0.015c0.25,0.849,0.559,1.654,1.021,2.072c-0.661-2.673,0.037-5.021,1.917-7.086
		c0.486,1.128,0.548,3.034,1.614,3.744c-0.563-1.256-0.625-2.388-0.3-3.429c0.028-0.002,0.057-0.002,0.082-0.002
		c-0.021-0.032-0.049-0.094-0.086-0.201c0.116-0.473,0.189,0.06,0.144,0.199c0.998-0.006,1.99,0.861,2.985,0.917
		c-0.597-0.695-1.546-1.092-2.255-1.499c-0.077-0.044-0.152-0.09-0.22-0.135c0.029,0.198-0.005,0.504-0.146,0.061
		c0.013-0.061,0.025-0.098,0.041-0.129c-0.161-0.11-0.298-0.226-0.4-0.351c0.135,0.75-0.471,0.049-0.082-0.116
		c-0.016-0.027-0.036-0.055-0.051-0.083c2.469-1.347,4.926-0.942,7.377-0.097c-1.307-1.139-2.618-1.579-3.92-2.614
		c3.352-0.294,6.042-0.355,9.127,2.083c-0.011,0.106-0.009,0.075,0.003,0c0.593,0.47,1.201,1.024,1.835,1.696
		c-0.012,0.01-0.023,0.019-0.036,0.028c-0.004-0.006,0,0,0,0c-0.227,0.2-0.454,0.393-0.682,0.572
		c0.007-0.059,0.002-0.144-0.01-0.214c-0.021-0.116-0.061-0.19-0.106-0.069c-0.012,0.03-0.024,0.072-0.036,0.131
		c0.036,0.107,0.064,0.168,0.088,0.2c-0.143,0.109-0.285,0.204-0.424,0.301c-0.016-0.187-0.079-0.393-0.157-0.036
		c0.017,0.048,0.03,0.083,0.044,0.114c-0.532,0.352-1.069,0.601-1.608,0.644c-1.214-1.402-2.421-2.373-3.623-2.887
		c1.099,0.938,3.07,2.481,3.631,3.561c-2.505,2.797-5.039,0.801-7.569-1.133c1.373,1.261,2.75,2.109,4.13,3.851
		c-0.993,0.779-1.986,1.332-2.98,1.301l-0.544-0.595c-0.716-0.9-1.547-1.7-2.262-2.601c0.357,1.151,1.956,2.601,2.472,3.789
		c-0.964,0.723-0.941,1.679-2.173,2.333c-1.35-1.669-2.04-3.18-2.628-4.663c-0.342,0.478,1.049,2.822,1.629,4.085
		c-0.662,0.936-1.27,2.638-2.586,3.069c-0.02-0.076-0.064-0.14-0.141-0.138c-0.003,0.07-0.009,0.141-0.113,0.097
		c0.001,0.04,0.003,0.078,0.006,0.117c-0.017,0.003-0.031,0.012-0.049,0.017c-0.258-0.405-0.57-0.971-0.885-1.568
		c0.01-0.015,0.027-0.02,0.031-0.04c-0.024,0-0.04-0.009-0.059-0.013c-1.003-1.907-2.036-4.113-1.538-2.498
		c0.027,0.092,0.07,0.197,0.124,0.318c-0.106,0.566-0.053,0.287,0,0c0.107,0.239,0.26,0.536,0.437,0.878
		c-0.007-0.007-0.004-0.004-0.015-0.018c-0.043-0.047-0.009-0.006,0.018,0.023c0.208,0.406,0.447,0.888,0.682,1.416
		c-0.011,0.16-0.017,0.317,0.138,0.331c-0.007-0.015-0.001-0.021-0.006-0.033c0.175,0.413,0.339,0.856,0.484,1.321
		c-0.042,0.224-0.027,0.141,0,0.002c0.027,0.086,0.058,0.171,0.083,0.258c-0.077,0.079-0.164,0.177-0.254,0.28
		c-0.009-0.111-0.047-0.212-0.101,0.003c0.011,0.039,0.021,0.056,0.031,0.077c-0.173,0.199-0.368,0.42-0.579,0.632
		c-0.046-0.039-0.084-0.083-0.135-0.116c0.007,0.072,0.048,0.118,0.071,0.179c-0.064,0.063-0.128,0.117-0.195,0.176
		c-0.069-0.229-0.344-0.284-0.472-0.466c0.051,0.25-0.009,0.375-0.221,0.318c0.042-0.614,0.045-0.651,0.047-1.542
		c-0.12-0.021-0.239-0.042-0.357-0.064c0.227,0.439,0.249,0.362-0.094,0.582c0.505,0.253-0.321,0.506,0.286,1.002
		c-0.378,0.035-0.379-0.258-0.608-0.347c0.1,0.313,0.419,0.791,0.707,0.966c-0.168,0.063-0.341,0.101-0.515,0.081
		c-0.128-0.197-0.245-0.407-0.362-0.618c0.022,0.012,0.044,0.021,0.07,0.029c0.018-0.097-0.051-0.122-0.126-0.139
		c-0.002,0.013,0.008,0.017,0.01,0.03c-0.007-0.014-0.016-0.025-0.022-0.039c0.005,0.003,0.008,0.006,0.013,0.009
		c0.014-0.074-0.024-0.103-0.073-0.123c-0.265-0.508-0.501-1.044-0.711-1.579c0.203,0.042,0.5,0.189,0.474-0.027
		c-0.124,0.025-0.392-0.115-0.521-0.096c-0.101-0.263-0.196-0.525-0.284-0.786c0.178,0.112,0.454-0.215-0.067-0.205
		c-0.103-0.304-0.195-0.597-0.281-0.884c0.214,0.176,0.285,0.481,0.589,0.582c0.089-0.552-0.274-0.701-0.664-0.83
		c-0.168-0.575-0.307-1.09-0.416-1.473c0.058,1.463,0.968,4.915,2.345,7.484c0.398-0.1,0.807-0.991,1.197-0.545
		c1.542,2.545,4.568,5.048,6.711,6.35c0.362-0.192,0.187-0.517,0.514-0.713c1.245,0.818,2.487,1.827,3.733,1.93
		c-0.118-0.31-0.2-0.611-0.168-0.882c1.586,0.917,3.177,1.772,4.767,2.187c-0.362-0.595-0.551-1.146-0.52-1.645
		c1.305,1.007,2.608,0.955,3.919,1.811c0.381-0.187,0.103-0.537,0.158-0.805c0.854,0.505,1.696,0.172,2.561,1.137
		c0.652-0.963-0.164-2.294-0.06-3.393c0.284,0.187,0.567,0.343,0.852,0.377c-0.086-1.316-0.515-2.72-0.587-4.032
		c0.446-0.233,0.913,0.795,1.355,0.671c-0.141-1.615-0.799-3.354-1.107-5.007c0.336,0.059,0.68,0.736,1.004,0.243
		c-0.46-1.41-1.006-2.839-1.253-4.193c0.282,0.211,0.558,0.261,0.828,0.029c-1.191-2.602-2.36-5.193-4.921-8.115
		c0.267-0.218,0.535-0.434,0.805-0.653c-1.876-1.624-4.259-3.376-5.728-3.555c0.015-0.013-0.099-0.125-0.023-0.003
		c-0.146-0.1-0.288-0.193-0.434-0.284c-0.019,0-0.039-0.004-0.057-0.004c0.014-0.003,0.025-0.003,0.037-0.007
		c-0.091,0.018-0.44-0.229-0.544-0.276c-0.183-0.092-0.364-0.183-0.545-0.266c-0.362-0.168-0.729-0.321-1.1-0.449
		c-0.747-0.255-1.495-0.39-2.231-0.427c-1.561-0.071-3.081,0.223-4.436,0.763c-0.269,0.107-0.529,0.229-0.786,0.354
		c0.194,0.377,0.436,0.708,0.805,0.925c-0.278,0.547-0.489-0.557-1.075-0.366c-0.001-0.135-0.029-0.265-0.067-0.391
		c-0.141,0.078-0.266,0.184-0.397,0.276c0.128,0.126,0.247,0.262,0.309,0.453c0.725-0.052,0.062,0.558,0,0
		c-0.223,0.001-0.349,0.224-0.367-0.245c-0.134,0.015-0.2,0.118-0.159,0.336c-0.075-0.124-0.135-0.261-0.192-0.4
		c-0.346-0.049-0.689-0.52-0.957-0.868c-0.054,0.826,0.595,0.45,0.611,0.992c-0.56,0.06-0.564-0.384-0.906-0.521
		c-0.233-0.039-0.148,0.296-0.337,0.308C16.881,16.651,16.464,16.165,16.286,16.123z M14.177,21.55
		C14.757,21.212,13.768,22.088,14.177,21.55L14.177,21.55z M13.537,23.257C13.715,22.57,13.774,24.02,13.537,23.257L13.537,23.257z
		 M13.425,24.876c-0.002-0.18,0.214-0.105,0.353-0.121C13.78,24.934,13.564,24.857,13.425,24.876z M14.099,23.904
		C14.274,23.215,14.34,24.665,14.099,23.904L14.099,23.904z M14.074,23.354c-0.002-0.179,0.214-0.105,0.354-0.122
		C14.43,23.41,14.211,23.335,14.074,23.354z M14.59,22.897C14.766,22.21,14.83,23.659,14.59,22.897L14.59,22.897z M14.738,22.195
		C14.521,22.176,14.616,21.911,14.738,22.195C14.954,22.215,14.858,22.48,14.738,22.195z M14.535,21.613
		c0.034-0.223,0.347-0.123,0.357,0.062C14.825,21.927,14.733,21.629,14.535,21.613z M15.081,21.891
		C15.001,21.799,15.202,22.032,15.081,21.891L15.081,21.891z M15.282,22.474C15.204,22.384,15.406,22.612,15.282,22.474
		L15.282,22.474z M15.2,20.637C15.376,19.947,15.441,21.398,15.2,20.637L15.2,20.637z M16.202,23.18
		C16.378,22.493,16.447,23.942,16.202,23.18L16.202,23.18z M16.179,18.803C16.301,18.944,16.1,18.713,16.179,18.803L16.179,18.803z
		 M16.145,21.896C16.32,21.206,16.384,22.658,16.145,21.896L16.145,21.896z M15.607,21.802c0.221-0.542,0.207,0.681,0.223,0.949
		C15.607,23.292,15.623,22.071,15.607,21.802z M16.255,24.283C15.688,23.782,16.408,23.144,16.255,24.283
		C16.473,24.305,16.378,24.57,16.255,24.283z M20.038,25.136C19.961,25.044,20.164,25.274,20.038,25.136L20.038,25.136z
		 M27.848,23.93c1.703-0.227,3.398-1.027,5.104-0.292c1.524,2.222,1.381,4.044,2.231,6.11c-1.771,0.1-3.553-0.986-5.326-1.627
		C28.203,26.45,29.564,25.12,27.848,23.93z M34.927,38.977c-0.011-0.107-0.027-0.211-0.126-0.241
		c0.008,0.074,0.012,0.146,0.018,0.219c-1.018-0.204-2.038-0.671-3.058-1.097c-0.552-1.147-0.138-2.057-0.358-3.123
		c1.006,0.103,2.016,0.349,3.026,0.738c0.606,1.274,0.421,2.354,0.716,3.552C35.072,39.015,35.002,38.99,34.927,38.977z
		 M30.888,33.43c-0.287-1.478-0.57-2.948-0.861-4.423c1.605-0.155,3.222,0.976,4.841,1.676c0.112,1.211,0.495,2.485,0.55,3.682
		l0.175,0.55C34.031,35.114,32.455,33.672,30.888,33.43z M31.091,38.366c-1.405-0.117-2.817-0.822-4.225-1.539
		c-0.784-1.654-0.455-3.027-1.004-4.622c1.451-0.295,2.906,1.231,4.358,1.398C30.833,35.27,30.893,36.8,31.091,38.366z
		 M28.52,26.789c1.205,2.144,1.166,3.988,1.528,5.928c-1.898-0.489-3.794-1.068-5.685-3.062
		C23.736,27.372,26.562,25.633,28.52,26.789z M16.763,33.178c0.064,0.025,0.106,0.073,0.156,0.112
		c-0.068,0.056-0.136,0.109-0.206,0.161c-0.02-0.02-0.043-0.033-0.059-0.055C16.629,33.254,16.67,33.187,16.763,33.178z
		 M16.41,33.233c0.031,0.12,0.107,0.203,0.136,0.323c-0.046,0.027-0.091,0.054-0.139,0.077C16.22,33.476,16.089,33.24,16.41,33.233z
		 M22.959,39.734c-1.644-1.171-5.599-3.659-5.443-5.812c0.075,0.151,0.124,0.011,0.002-0.01c0.011-0.152,0.039-0.305,0.094-0.453
		c0.071,0.35,0.274,0.585,0.618,0.699c-0.159-0.277-0.363-0.508-0.616-0.701c0.033-0.088,0.092-0.173,0.141-0.259
		c0.03,0.179,0.255,0.384,0.452,0.477c-0.004-0.077-0.007-0.158-0.01-0.239c-0.395,0.105-0.132-0.363-0.343-0.416
		c0.117-0.163,0.263-0.321,0.448-0.474c0.374,0.303,0.748,0.616,1.123,0.929c-0.012,0.021,0.004,0.068,0.081,0.076
		c-0.005-0.013-0.009-0.013-0.014-0.019c0.012,0.01,0.024,0.019,0.037,0.03c-0.007-0.004-0.014-0.009-0.022-0.012
		c-0.018,0.1,0.054,0.122,0.124,0.143c0.005-0.03-0.008-0.043-0.017-0.062c1.231,1.028,2.467,2.021,3.711,2.493
		C23.272,37.346,23.849,38.719,22.959,39.734z M20.201,33.55c0.269,0.009,0.037-0.283-0.064-0.153
		c-0.211-1.755,0.883-3.187,1.561-4.723c0.708,1.823,2.584,1.192,3.83,2.779c0.128,1.766,0.495,3.597,0.495,5.332
		C24.075,36.148,22.13,35.393,20.201,33.55z M24.049,39.439c-0.505-0.548-0.262-2.723,1.466-1.937
		c0.966,1.358,1.122,2.622,1.771,3.904C25.98,41.235,24.709,40.146,24.049,39.439z M26.432,38.533
		c-0.715-1.631,2.59-0.44,3.479,0.049c0.72,1.298,0.978,2.775,1.819,4.099C29.735,42.055,27.527,40.868,26.432,38.533z
		 M30.586,38.771c1.688-0.347,3.445,0.302,3.835,0.766c0.158,0.08,0.327,0.66,0.523,1.376c-0.099,0.014-0.199,0.078-0.209,0.096
		c-0.063,0.12,0.121,0.104,0.249,0.052c0.029,0.108,0.06,0.217,0.09,0.335c-0.119-0.038-0.275,0.298,0.075,0.412
		c0.008-0.056,0.002-0.086,0.005-0.129c0.12,0.434,0.251,0.87,0.394,1.248C34.248,42.257,31.14,41.689,30.586,38.771z
		 M38.321,43.177c-0.667-0.557-1.975-0.823-1.975-0.823c-0.555,0.24-1.683-2.231-1.274-2.976c0.085,0.062,0.169,0.124,0.264,0.175
		c-0.176-0.376,0.729,0.066,0.507-0.302c0.845,0.152,1.565,0.563,1.945,0.869c0.12,0.219,0.311,0.853,0.452,1.492
		c-0.039-0.016-0.095,0.003-0.078,0.11c0.058-0.015,0.078-0.035,0.091-0.053c0.032,0.15,0.061,0.293,0.085,0.437
		c-0.128-0.062-0.125-0.247-0.176-0.384c-0.533-0.128,0.086,0.944,0.195,0.483C38.443,42.729,38.462,43.149,38.321,43.177z
		 M35.417,39.189c0.091,0.006,0.178,0.025,0.266,0.038C35.599,39.261,35.51,39.231,35.417,39.189z M38.875,39.991
		c-1.013,0.003-2.226-1.236-3.237-1.412c-0.097-1.095-0.327-2.554,0.969-3.307C38.399,36.371,38.739,38.742,38.875,39.991z
		 M39.731,36.689c-1.452-0.526-3.024-1.675-3.771-2.753c-0.467-0.674-0.49-2.683,0.049-3.508
		C38.063,31.427,39.407,35.05,39.731,36.689z M39.375,31.945c-1.372-0.322-4.404-2.619-3.871-3.972
		C38.012,28.448,38.935,30.682,39.375,31.945z M38.629,28.042c-1.158-0.109-2.315-0.137-3.484-0.67
		c-0.834-1.893-1.281-3.687-2.709-5.714C35.335,19.628,37.887,25.77,38.629,28.042z M21.245,17.854
		C21.366,17.995,21.165,17.767,21.245,17.854L21.245,17.854z M19.621,20.497C19.541,20.405,19.744,20.637,19.621,20.497
		L19.621,20.497z M19.404,19.729C19.526,19.87,19.325,19.639,19.404,19.729L19.404,19.729z M19.376,19.176
		C19.543,18.484,19.619,19.938,19.376,19.176L19.376,19.176z M19.269,17.15C19.192,17.06,19.394,17.291,19.269,17.15L19.269,17.15z
		 M19.049,19.666C19.218,18.974,19.292,20.431,19.049,19.666L19.049,19.666z M17.121,20.062
		C17.044,19.97,17.246,20.202,17.121,20.062L17.121,20.062z M18.572,17.21C18.691,17.353,18.492,17.123,18.572,17.21L18.572,17.21z
		 M18.635,18.499C18.606,18.274,18.889,18.431,18.635,18.499c0.047,0.152,0.022,0.364,0.195,0.4
		C18.769,19.581,18.089,18.375,18.635,18.499z M18.066,17.67C18.186,17.812,17.987,17.582,18.066,17.67L18.066,17.67z M18.28,18.439
		c-0.225-0.12-0.378-0.299-0.383-0.614C18.12,17.941,18.274,18.122,18.28,18.439z M18.299,18.805
		c0.207,0.587-0.383,0.259-0.696,0.247C17.71,18.824,17.968,18.772,18.299,18.805z M17.223,18.437
		C16.662,17.767,18.402,18.287,17.223,18.437L17.223,18.437z"/>
	<path fill="#F7971C" d="M13.293,13.447c0.607,0.214,1.172,0.43,1.679,0.443c0.039,0.141,0.223,0.15,0.35,0.21
		c-0.004,0.259-0.006,0.516,0.201,0.583c0.023-0.389,0.001-0.737-0.328-0.807c0.137-0.017,0.273-0.035,0.398-0.096
		c0.315,0.065,0.464,0.25,0.595,0.41c-0.024,0-0.054,0.036-0.088,0.178c0.163,0.522,0.182,0.013,0.123-0.143
		c0.081,0.095,0.172,0.157,0.287,0.18c0.038,0.075,0.062,0.067,0.075,0.021c0.011,0,0.015,0.006,0.026,0.006
		c-0.005-0.006-0.013-0.012-0.021-0.02c0.034-0.162-0.031-0.622-0.144-0.169c0.01,0.032,0.016,0.04,0.025,0.064
		c-0.241-0.222-0.485-0.441-0.726-0.645c-1.107-0.931-2.368-1.801-3.667-2.236c-0.743-0.248-1.491-0.381-2.217-0.351
		C9.636,13.785,11.113,12.365,13.293,13.447z"/>
	<path fill="#F7971C" d="M15.338,15.092c0.041,0.044,0.082,0.088,0.124,0.131C15.455,15.059,15.41,14.891,15.338,15.092z"/>
	<path fill="#F7971C" d="M14.297,14.106c0.09,0.075,0.182,0.154,0.272,0.234c-0.004-0.062-0.006-0.125-0.011-0.189
		C14.472,14.137,14.383,14.122,14.297,14.106z"/>
	<path fill="#F7971C" d="M17.411,15.224c-0.018-0.019-0.032-0.037-0.047-0.051c-0.101-0.105-0.208-0.21-0.312-0.315
		c0.038,0.25,0.225,0.364,0.205,0.667C17.416,15.548,17.389,15.359,17.411,15.224z"/>
	<path fill="#F7971C" d="M16.837,14.651c-0.035-0.032-0.065-0.064-0.098-0.096c-0.016,0.029-0.032,0.076-0.05,0.146
		C16.827,15.135,16.862,14.848,16.837,14.651z"/>
	<path fill="#F7971C" d="M16.28,15.024c0.004-0.053,0-0.111-0.007-0.166c-0.018-0.111-0.056-0.188-0.105-0.066
		c-0.03-0.035-0.018-0.02,0,0c-0.013,0.029-0.026,0.068-0.042,0.125c0.04,0.124,0.069,0.185,0.093,0.211
		c-0.012,0.068-0.012,0.151-0.029,0.214c0.031,0.158,0.188,0.197,0.353,0.232l0,0c0.065,0.013,0.13,0.026,0.189,0.043
		c-0.186,0.231-0.17,0.416,0.204,0.583c-0.01-0.246-0.023-0.493-0.034-0.736c-0.14-0.195-0.336-0.335-0.551-0.459
		C16.319,15.001,16.3,15.013,16.28,15.024z"/>
	<path fill="#F7971C" d="M32.29,17.966C32.208,17.876,32.413,18.107,32.29,17.966L32.29,17.966z"/>
	<path fill="#F7971C" d="M34.267,18.673C34.186,18.583,34.391,18.816,34.267,18.673L34.267,18.673z"/>
	<path fill="#F7971C" d="M33.42,19.081C33.421,19.082,33.42,19.081,33.42,19.081C33.404,19.061,33.391,19.045,33.42,19.081z"/>
	<path fill="#F7971C" d="M33.421,19.082C33.451,19.115,33.495,19.162,33.421,19.082L33.421,19.082z"/>
	<path fill="#F7971C" d="M37.796,41.654c-0.015-0.319-0.177-0.506-0.408-0.627C37.399,41.345,37.563,41.533,37.796,41.654z"/>
	<path fill="#F7971C" d="M33.826,19.442c-0.011-0.06-0.057-0.088-0.115-0.104c-0.011,0.089,0.044,0.115,0.107,0.132
		c-0.008,0.019-0.011,0.021-0.016,0.043C34.052,20.245,33.965,18.982,33.826,19.442z"/>
	<path fill="#F7971C" d="M36.71,41.639C37.918,41.504,36.115,40.949,36.71,41.639L36.71,41.639z"/>
	<path fill="#F7971C" d="M32.042,19.395C32.167,19.535,31.965,19.304,32.042,19.395L32.042,19.395z"/>
	<path fill="#F7971C" d="M33.108,19.579C33.359,19.508,33.072,19.35,33.108,19.579L33.108,19.579z"/>
	<path fill="#F7971C" d="M33.463,19.639C33.722,20.411,33.613,18.938,33.463,19.639L33.463,19.639z"/>
	<path fill="#F7971C" d="M33.138,19.715c-0.009-0.041-0.017-0.085-0.029-0.137c-0.021,0.004-0.038,0.013-0.055,0.019
		C32.671,19.767,33.287,20.474,33.138,19.715z"/>
	<path fill="#F7971C" d="M37.118,42.266c0.324,0.019,0.937,0.359,0.707-0.236C37.485,41.991,37.222,42.037,37.118,42.266z"/>
	<path fill="#F7971C" d="M32.439,20.013C32.697,20.787,32.592,19.313,32.439,20.013L32.439,20.013z"/>
	<path fill="#F7971C" d="M35.294,20.692C35.42,20.835,35.215,20.601,35.294,20.692L35.294,20.692z"/>
	<path fill="#F7971C" d="M32.121,20.512C32.382,21.283,32.275,19.812,32.121,20.512L32.121,20.512z"/>
	<path fill="#F7971C" d="M32.48,20.572C32.396,20.482,32.604,20.713,32.48,20.572L32.48,20.572z"/>
	<path fill="#F7971C" d="M33.066,21.41C33.193,21.55,32.985,21.317,33.066,21.41L33.066,21.41z"/>
	<path fill="#F7971C" d="M33.108,21.969C33.027,21.878,33.234,22.112,33.108,21.969L33.108,21.969z"/>
	<path fill="#F7971C" d="M34.889,22.279C35.016,22.42,34.809,22.187,34.889,22.279L34.889,22.279z"/>
	<path fill="#F7971C" d="M35.423,22.371C35.553,22.515,35.343,22.281,35.423,22.371L35.423,22.371z"/>
	<path fill="#F7971C" d="M34.04,22.683C34.169,22.824,33.959,22.592,34.04,22.683L34.04,22.683z"/>
	<path fill="#F7971C" d="M16.077,13.817C16.197,13.957,15.999,13.727,16.077,13.817L16.077,13.817z"/>
	<path fill="#F7971C" d="M15.746,14.308C15.999,14.236,15.721,14.083,15.746,14.308L15.746,14.308z"/>
	<path fill="#F7971C" d="M16.984,14.52C17.109,14.658,16.908,14.43,16.984,14.52L16.984,14.52z"/>
	<path fill="#F7971C" d="M15.774,14.443c-0.008-0.042-0.015-0.083-0.028-0.135c-0.021,0.003-0.036,0.013-0.053,0.019
		C15.305,14.494,15.901,15.19,15.774,14.443z"/>
	<path fill="#F7971C" d="M15.065,14.736C15.303,15.496,15.238,14.047,15.065,14.736L15.065,14.736z"/>
	<path fill="#F7971C" d="M16.481,14.98c0.007,0.006,0.009,0.009,0.013,0.012C16.468,14.965,16.445,14.937,16.481,14.98z"/>
	<path fill="#F7971C" d="M17.012,15.073C17.131,15.21,16.935,14.98,17.012,15.073L17.012,15.073z"/>
	<path fill="#F7971C" d="M15.703,15.578c0.028,0.04,0.045,0.033,0.058-0.001c0.046-0.138-0.023-0.671-0.139-0.198
		C15.654,15.486,15.682,15.546,15.703,15.578z"/>
	<path fill="#F7971C" d="M15.299,16.053C15.421,16.192,15.225,15.963,15.299,16.053L15.299,16.053z"/>
	<path fill="#F7971C" d="M15.654,16.113C15.575,16.024,15.776,16.255,15.654,16.113L15.654,16.113z"/>
	<path fill="#F7971C" d="M15.681,16.667C15.802,16.805,15.601,16.575,15.681,16.667L15.681,16.667z"/>
	<path fill="#F7971C" d="M16.595,17.37C16.515,17.281,16.714,17.509,16.595,17.37L16.595,17.37z"/>
	<path fill="#F7971C" d="M15.017,25.324c-0.013-0.268,0.002-1.488-0.219-0.949C14.809,24.646,14.794,25.866,15.017,25.324z"/>
	<path fill="#F7971C" d="M14.199,28.055C14.44,28.814,14.378,27.365,14.199,28.055L14.199,28.055z"/>
	<path fill="#F7971C" d="M15.284,28.249C15.41,28.388,15.204,28.155,15.284,28.249L15.284,28.249z"/>
	<path fill="#F7971C" d="M14.471,25.046C14.389,24.956,14.593,25.187,14.471,25.046L14.471,25.046z"/>
	<path fill="#F7971C" d="M18.781,25.625c-0.138,0.018-0.356-0.055-0.353,0.123C18.567,25.731,18.787,25.805,18.781,25.625z"/>
	<path fill="#F7971C" d="M19.15,25.875C19.07,25.785,19.274,26.018,19.15,25.875L19.15,25.875z"/>
	<path fill="#F7971C" d="M19.691,25.971C19.936,26.735,19.86,25.281,19.691,25.971L19.691,25.971z"/>
	<path fill="#F7971C" d="M15.654,28.497C15.778,28.638,15.575,28.403,15.654,28.497L15.654,28.497z"/>
	<path fill="#F7971C" d="M16.197,28.593C16.323,28.733,16.12,28.503,16.197,28.593L16.197,28.593z"/>
	<path fill="#F7971C" d="M12.676,24.912C12.596,24.82,12.8,25.052,12.676,24.912L12.676,24.912z"/>
	<path fill="#F7971C" d="M15.483,28.647C14.54,27.981,14.836,29.166,15.483,28.647L15.483,28.647z"/>
	<path fill="#F7971C" d="M14.346,25.455c-0.008,0.027-0.021,0.062-0.035,0.108c0.067,0.214,0.111,0.25,0.135,0.212
		C14.501,25.688,14.451,25.183,14.346,25.455z"/>
	<path fill="#F7971C" d="M15.392,25.757C15.635,26.519,15.571,25.066,15.392,25.757L15.392,25.757z"/>
	<path fill="#F7971C" d="M19.177,26.427C19.098,26.337,19.302,26.568,19.177,26.427L19.177,26.427z"/>
	<path fill="#F7971C" d="M18.826,26.547C18.953,26.688,18.747,26.458,18.826,26.547L18.826,26.547z"/>
	<path fill="#F7971C" d="M16.048,29.295C15.927,29.008,15.832,29.275,16.048,29.295L16.048,29.295z"/>
	<path fill="#F7971C" d="M16.231,29.327C16.49,29.263,16.202,29.102,16.231,29.327L16.231,29.327z"/>
	<path fill="#F7971C" d="M16.24,29.511c-0.003-0.059-0.005-0.121-0.009-0.182c-0.058-0.013-0.12-0.021-0.183-0.033
		C16.025,29.445,16.13,29.481,16.24,29.511z"/>
	<path fill="#F7971C" d="M15.442,26.856C15.597,25.721,14.872,26.358,15.442,26.856L15.442,26.856z"/>
	<path fill="#F7971C" d="M16.24,29.511C16.363,29.8,16.459,29.532,16.24,29.511L16.24,29.511z"/>
	<path fill="#F7971C" d="M15.895,29.813c0.025-0.15-0.08-0.186-0.188-0.213C15.678,29.747,15.783,29.783,15.895,29.813z"/>
	<path fill="#F7971C" d="M16.084,30.029c0.023-0.135-0.063-0.175-0.163-0.204c-0.001,0-0.005-0.008-0.022-0.024
		c-0.036-0.042,0.014,0.014,0.022,0.024c-0.01-0.001-0.017-0.011-0.027-0.012C15.869,29.962,15.974,29.999,16.084,30.029z"/>
	<path fill="#F7971C" d="M14.36,26.665C14.601,27.428,14.537,25.978,14.36,26.665L14.36,26.665z"/>
	<path fill="#F7971C" d="M15.368,30.084c0.024-0.15-0.083-0.187-0.191-0.218C15.149,30.017,15.256,30.053,15.368,30.084z"/>
	<path fill="#F7971C" d="M16.084,30.029C15.946,30.762,16.629,30.165,16.084,30.029L16.084,30.029z"/>
	<path fill="#F7971C" d="M12.742,26.558C12.661,26.468,12.864,26.699,12.742,26.558L12.742,26.558z"/>
	<path fill="#F7971C" d="M15.442,26.856C15.567,27.144,15.659,26.876,15.442,26.856L15.442,26.856z"/>
	<path fill="#F7971C" d="M15.523,14.684C15.643,14.967,15.736,14.7,15.523,14.684L15.523,14.684z"/>
	<path fill="#F7971C" d="M18.337,27.556C18.464,27.697,18.261,27.463,18.337,27.556L18.337,27.556z"/>
	<path fill="#F7971C" d="M19.244,27.717C19.162,27.624,19.367,27.858,19.244,27.717L19.244,27.717z"/>
	<path fill="#F7971C" d="M15.558,30.3c0.024-0.149-0.081-0.187-0.19-0.216C15.339,30.233,15.445,30.27,15.558,30.3z"/>
	<path fill="#F7971C" d="M15.746,30.516c0.026-0.149-0.079-0.187-0.188-0.216C15.53,30.45,15.634,30.484,15.746,30.516z"/>
	<path fill="#F7971C" d="M14.871,27.299c0.017,0.004,0.032,0.01,0.054,0.013c-0.032-0.078-0.062-0.112-0.085-0.124
		C14.785,27.155,14.772,27.26,14.871,27.299z"/>
	<path fill="#F7971C" d="M15.831,27.472C15.925,26.967,15.534,29.018,15.831,27.472L15.831,27.472z"/>
	<path fill="#F7971C" d="M16.912,27.665C17.156,28.43,17.087,26.978,16.912,27.665L16.912,27.665z"/>
	<path fill="#F7971C" d="M15.746,30.516C15.871,30.803,15.965,30.535,15.746,30.516L15.746,30.516z"/>
	<path fill="#F7971C" d="M14.39,27.396C14.312,27.308,14.513,27.538,14.39,27.396L14.39,27.396z"/>
	<path fill="#F7971C" d="M15.295,27.56c-0.003,0.258-0.009,0.515,0.206,0.582c0.03-0.47,0.019-0.906-0.576-0.83
		C14.939,27.491,15.151,27.494,15.295,27.56z"/>
	<path fill="#F7971C" d="M20.357,28.464C20.387,28.497,20.429,28.546,20.357,28.464L20.357,28.464z"/>
	<path fill="#F7971C" d="M20.354,28c0.002,0,0.001,0,0.002,0C20.338,28,20.324,28,20.354,28z"/>
	<path fill="#F7971C" d="M20.717,28.529C20.841,28.67,20.638,28.436,20.717,28.529L20.717,28.529z"/>
	<path fill="#F7971C" d="M14.776,28.015C14.901,28.155,14.697,27.922,14.776,28.015L14.776,28.015z"/>
</g>
</svg>
